<mxfile host="app.diagrams.net" modified="2021-11-28T08:39:55.745Z" agent="5.0 (Windows NT 10.0; Win64; x64) AppleWebKit/537.36 (KHTML, like Gecko) Chrome/96.0.4664.45 Safari/537.36" etag="g2y6odwcOpWGv00h-YT3" version="15.8.6" type="github">
  <diagram id="BvpleSTLgyMgcuBklV_r" name="Page-1">
    <mxGraphModel dx="1673" dy="896" grid="1" gridSize="10" guides="1" tooltips="1" connect="1" arrows="1" fold="1" page="1" pageScale="1" pageWidth="827" pageHeight="1169" math="0" shadow="0">
      <root>
        <mxCell id="0" />
        <mxCell id="1" parent="0" />
        <mxCell id="UnUnKvQV5A7Vc4DDt37c-1" value="" style="rounded=0;whiteSpace=wrap;html=1;" vertex="1" parent="1">
          <mxGeometry x="20" y="30" width="1480" height="180" as="geometry" />
        </mxCell>
        <mxCell id="UnUnKvQV5A7Vc4DDt37c-2" value="" style="rounded=0;whiteSpace=wrap;html=1;fontSize=26;" vertex="1" parent="1">
          <mxGeometry x="120" y="110" width="690" height="77" as="geometry" />
        </mxCell>
        <mxCell id="UnUnKvQV5A7Vc4DDt37c-3" value="&lt;font color=&quot;#1d00ff&quot; style=&quot;font-size: 30px;&quot;&gt;车路协同与自动驾驶&lt;/font&gt;" style="text;html=1;align=center;verticalAlign=middle;resizable=0;points=[];autosize=1;fontSize=30;fontStyle=1" vertex="1" parent="1">
          <mxGeometry x="650" y="50" width="290" height="40" as="geometry" />
        </mxCell>
        <mxCell id="UnUnKvQV5A7Vc4DDt37c-4" value="车路协同" style="text;html=1;align=center;verticalAlign=middle;resizable=0;points=[];autosize=1;fontSize=26;fontStyle=1" vertex="1" parent="1">
          <mxGeometry x="150" y="130" width="120" height="40" as="geometry" />
        </mxCell>
        <mxCell id="UnUnKvQV5A7Vc4DDt37c-5" value="&lt;font style=&quot;font-size: 22px;&quot;&gt;安全类&lt;/font&gt;" style="rounded=0;whiteSpace=wrap;html=1;fontSize=26;dashed=1;" vertex="1" parent="1">
          <mxGeometry x="295" y="130" width="130" height="40" as="geometry" />
        </mxCell>
        <mxCell id="UnUnKvQV5A7Vc4DDt37c-6" value="&lt;font style=&quot;font-size: 22px;&quot;&gt;效率类&lt;/font&gt;" style="rounded=0;whiteSpace=wrap;html=1;fontSize=26;dashed=1;" vertex="1" parent="1">
          <mxGeometry x="465" y="130" width="130" height="40" as="geometry" />
        </mxCell>
        <mxCell id="UnUnKvQV5A7Vc4DDt37c-7" value="&lt;font style=&quot;font-size: 22px;&quot;&gt;服务类&lt;/font&gt;" style="rounded=0;whiteSpace=wrap;html=1;fontSize=26;dashed=1;" vertex="1" parent="1">
          <mxGeometry x="635" y="130" width="130" height="40" as="geometry" />
        </mxCell>
        <mxCell id="UnUnKvQV5A7Vc4DDt37c-8" value="" style="rounded=0;whiteSpace=wrap;html=1;fontSize=26;" vertex="1" parent="1">
          <mxGeometry x="840" y="110" width="610" height="77" as="geometry" />
        </mxCell>
        <mxCell id="UnUnKvQV5A7Vc4DDt37c-9" value="自动驾驶" style="text;html=1;align=center;verticalAlign=middle;resizable=0;points=[];autosize=1;fontSize=26;fontStyle=1" vertex="1" parent="1">
          <mxGeometry x="880" y="130" width="120" height="40" as="geometry" />
        </mxCell>
        <mxCell id="UnUnKvQV5A7Vc4DDt37c-10" value="&lt;font style=&quot;font-size: 22px;&quot;&gt;车辆编队&lt;/font&gt;" style="rounded=0;whiteSpace=wrap;html=1;fontSize=26;dashed=1;" vertex="1" parent="1">
          <mxGeometry x="1025" y="130" width="130" height="40" as="geometry" />
        </mxCell>
        <mxCell id="UnUnKvQV5A7Vc4DDt37c-11" value="&lt;font style=&quot;font-size: 22px;&quot;&gt;L3级以上自动驾驶&lt;/font&gt;" style="rounded=0;whiteSpace=wrap;html=1;fontSize=26;dashed=1;" vertex="1" parent="1">
          <mxGeometry x="1195" y="130" width="210" height="40" as="geometry" />
        </mxCell>
        <mxCell id="UnUnKvQV5A7Vc4DDt37c-12" value="" style="rounded=0;whiteSpace=wrap;html=1;" vertex="1" parent="1">
          <mxGeometry x="20" y="260" width="980" height="360" as="geometry" />
        </mxCell>
        <mxCell id="UnUnKvQV5A7Vc4DDt37c-13" value="" style="rounded=0;whiteSpace=wrap;html=1;fontSize=26;" vertex="1" parent="1">
          <mxGeometry x="120" y="364" width="190" height="230" as="geometry" />
        </mxCell>
        <mxCell id="UnUnKvQV5A7Vc4DDt37c-14" value="车道级服务" style="text;html=1;align=center;verticalAlign=middle;resizable=0;points=[];autosize=1;fontSize=26;fontStyle=1" vertex="1" parent="1">
          <mxGeometry x="155" y="372" width="120" height="40" as="geometry" />
        </mxCell>
        <mxCell id="UnUnKvQV5A7Vc4DDt37c-15" value="&lt;font style=&quot;font-size: 22px;&quot;&gt;主线控制&lt;/font&gt;" style="rounded=0;whiteSpace=wrap;html=1;fontSize=26;dashed=1;" vertex="1" parent="1">
          <mxGeometry x="135" y="414" width="155" height="40" as="geometry" />
        </mxCell>
        <mxCell id="UnUnKvQV5A7Vc4DDt37c-16" value="&lt;span style=&quot;color: rgb(29, 0, 255); font-size: 30px; font-weight: 700;&quot;&gt;全方位服务&lt;/span&gt;" style="rounded=0;whiteSpace=wrap;html=1;fontSize=26;strokeColor=none;" vertex="1" parent="1">
          <mxGeometry x="50" y="366" width="40" height="200" as="geometry" />
        </mxCell>
        <mxCell id="UnUnKvQV5A7Vc4DDt37c-17" value="&lt;b&gt;&lt;font color=&quot;#ff0000&quot;&gt;面向驾乘人员&lt;/font&gt;&lt;/b&gt;" style="text;html=1;align=center;verticalAlign=middle;resizable=0;points=[];autosize=1;fontSize=26;" vertex="1" parent="1">
          <mxGeometry x="480" y="270" width="60" height="40" as="geometry" />
        </mxCell>
        <mxCell id="UnUnKvQV5A7Vc4DDt37c-18" value="&lt;font style=&quot;font-size: 22px;&quot;&gt;匝道控制&lt;/font&gt;" style="rounded=0;whiteSpace=wrap;html=1;fontSize=26;dashed=1;" vertex="1" parent="1">
          <mxGeometry x="135" y="464" width="155" height="40" as="geometry" />
        </mxCell>
        <mxCell id="UnUnKvQV5A7Vc4DDt37c-19" value="&lt;font style=&quot;font-size: 22px;&quot;&gt;匝道分合流&lt;br /&gt;服务&lt;/font&gt;" style="rounded=0;whiteSpace=wrap;html=1;fontSize=26;dashed=1;" vertex="1" parent="1">
          <mxGeometry x="135" y="514" width="155" height="70" as="geometry" />
        </mxCell>
        <mxCell id="UnUnKvQV5A7Vc4DDt37c-20" value="" style="rounded=0;whiteSpace=wrap;html=1;fontSize=26;" vertex="1" parent="1">
          <mxGeometry x="330" y="364" width="200" height="230" as="geometry" />
        </mxCell>
        <mxCell id="UnUnKvQV5A7Vc4DDt37c-21" value="全天候通行" style="text;html=1;align=center;verticalAlign=middle;resizable=0;points=[];autosize=1;fontSize=26;fontStyle=1" vertex="1" parent="1">
          <mxGeometry x="370" y="372" width="120" height="40" as="geometry" />
        </mxCell>
        <mxCell id="UnUnKvQV5A7Vc4DDt37c-22" value="&lt;span style=&quot;font-size: 22px;&quot;&gt;雾天行车诱导&lt;/span&gt;" style="rounded=0;whiteSpace=wrap;html=1;fontSize=26;dashed=1;" vertex="1" parent="1">
          <mxGeometry x="345" y="434" width="165" height="40" as="geometry" />
        </mxCell>
        <mxCell id="UnUnKvQV5A7Vc4DDt37c-23" value="&lt;font style=&quot;font-size: 22px;&quot;&gt;智能消冰除雪&lt;/font&gt;" style="rounded=0;whiteSpace=wrap;html=1;fontSize=26;dashed=1;" vertex="1" parent="1">
          <mxGeometry x="345" y="514" width="165" height="40" as="geometry" />
        </mxCell>
        <mxCell id="UnUnKvQV5A7Vc4DDt37c-24" value="&lt;span style=&quot;font-weight: 700;&quot;&gt;自由流收费&lt;/span&gt;" style="rounded=0;whiteSpace=wrap;html=1;fontSize=26;" vertex="1" parent="1">
          <mxGeometry x="550" y="364" width="200" height="90" as="geometry" />
        </mxCell>
        <mxCell id="UnUnKvQV5A7Vc4DDt37c-25" value="&lt;span style=&quot;font-weight: 700;&quot;&gt;智慧服务区&lt;/span&gt;" style="rounded=0;whiteSpace=wrap;html=1;fontSize=26;" vertex="1" parent="1">
          <mxGeometry x="550" y="504" width="200" height="90" as="geometry" />
        </mxCell>
        <mxCell id="UnUnKvQV5A7Vc4DDt37c-26" value="" style="rounded=0;whiteSpace=wrap;html=1;fontSize=26;" vertex="1" parent="1">
          <mxGeometry x="770" y="364" width="200" height="230" as="geometry" />
        </mxCell>
        <mxCell id="UnUnKvQV5A7Vc4DDt37c-27" value="在途信息发布" style="text;html=1;align=center;verticalAlign=middle;resizable=0;points=[];autosize=1;fontSize=26;fontStyle=1" vertex="1" parent="1">
          <mxGeometry x="810" y="372" width="120" height="40" as="geometry" />
        </mxCell>
        <mxCell id="UnUnKvQV5A7Vc4DDt37c-28" value="&lt;span style=&quot;font-size: 22px;&quot;&gt;指挥情报板&lt;/span&gt;" style="rounded=0;whiteSpace=wrap;html=1;fontSize=26;dashed=1;" vertex="1" parent="1">
          <mxGeometry x="785" y="434" width="165" height="40" as="geometry" />
        </mxCell>
        <mxCell id="UnUnKvQV5A7Vc4DDt37c-29" value="&lt;font style=&quot;font-size: 22px;&quot;&gt;互联网信息发布&lt;/font&gt;" style="rounded=0;whiteSpace=wrap;html=1;fontSize=26;dashed=1;" vertex="1" parent="1">
          <mxGeometry x="785" y="514" width="165" height="40" as="geometry" />
        </mxCell>
        <mxCell id="UnUnKvQV5A7Vc4DDt37c-30" value="" style="rounded=0;whiteSpace=wrap;html=1;" vertex="1" parent="1">
          <mxGeometry x="1050" y="260" width="450" height="360" as="geometry" />
        </mxCell>
        <mxCell id="UnUnKvQV5A7Vc4DDt37c-31" value="&lt;span style=&quot;color: rgb(29, 0, 255); font-size: 30px; font-weight: 700;&quot;&gt;全业务管理&lt;/span&gt;" style="rounded=0;whiteSpace=wrap;html=1;fontSize=26;strokeColor=none;" vertex="1" parent="1">
          <mxGeometry x="1070" y="366" width="40" height="200" as="geometry" />
        </mxCell>
        <mxCell id="UnUnKvQV5A7Vc4DDt37c-32" value="&lt;b&gt;&lt;font color=&quot;#ff0000&quot;&gt;面向管理人员&lt;/font&gt;&lt;/b&gt;" style="text;html=1;align=center;verticalAlign=middle;resizable=0;points=[];autosize=1;fontSize=26;" vertex="1" parent="1">
          <mxGeometry x="1245" y="270" width="60" height="40" as="geometry" />
        </mxCell>
        <mxCell id="UnUnKvQV5A7Vc4DDt37c-33" value="&lt;span style=&quot;font-weight: 700;&quot;&gt;建设管理&lt;/span&gt;" style="rounded=0;whiteSpace=wrap;html=1;fontSize=26;" vertex="1" parent="1">
          <mxGeometry x="1140" y="350" width="150" height="50" as="geometry" />
        </mxCell>
        <mxCell id="UnUnKvQV5A7Vc4DDt37c-34" value="&lt;span style=&quot;font-weight: 700;&quot;&gt;运行监测&lt;/span&gt;" style="rounded=0;whiteSpace=wrap;html=1;fontSize=26;" vertex="1" parent="1">
          <mxGeometry x="1140" y="412" width="150" height="50" as="geometry" />
        </mxCell>
        <mxCell id="UnUnKvQV5A7Vc4DDt37c-35" value="&lt;span style=&quot;font-weight: 700;&quot;&gt;应急指挥&lt;/span&gt;" style="rounded=0;whiteSpace=wrap;html=1;fontSize=26;" vertex="1" parent="1">
          <mxGeometry x="1140" y="474" width="150" height="50" as="geometry" />
        </mxCell>
        <mxCell id="UnUnKvQV5A7Vc4DDt37c-36" value="&lt;span style=&quot;font-weight: 700;&quot;&gt;收费管理&lt;/span&gt;" style="rounded=0;whiteSpace=wrap;html=1;fontSize=26;" vertex="1" parent="1">
          <mxGeometry x="1330" y="350" width="150" height="50" as="geometry" />
        </mxCell>
        <mxCell id="UnUnKvQV5A7Vc4DDt37c-37" value="&lt;span style=&quot;font-weight: 700;&quot;&gt;养护管理&lt;/span&gt;" style="rounded=0;whiteSpace=wrap;html=1;fontSize=26;" vertex="1" parent="1">
          <mxGeometry x="1330" y="412" width="150" height="50" as="geometry" />
        </mxCell>
        <mxCell id="UnUnKvQV5A7Vc4DDt37c-38" value="&lt;span style=&quot;font-weight: 700;&quot;&gt;决策支持&lt;/span&gt;" style="rounded=0;whiteSpace=wrap;html=1;fontSize=26;" vertex="1" parent="1">
          <mxGeometry x="1330" y="474" width="150" height="50" as="geometry" />
        </mxCell>
        <mxCell id="UnUnKvQV5A7Vc4DDt37c-39" value="&lt;span style=&quot;font-weight: 700;&quot;&gt;云控平台&lt;/span&gt;" style="rounded=0;whiteSpace=wrap;html=1;fontSize=26;" vertex="1" parent="1">
          <mxGeometry x="1140" y="544" width="340" height="50" as="geometry" />
        </mxCell>
        <mxCell id="UnUnKvQV5A7Vc4DDt37c-40" value="" style="shape=mxgraph.arrows.two_way_arrow_vertical;whiteSpace=wrap;html=1;fillColor=#ffffff;strokeColor=#000000;strokeWidth=2;rounded=0;fontSize=26;" vertex="1" parent="1">
          <mxGeometry x="442.5" y="213" width="135" height="45" as="geometry" />
        </mxCell>
        <mxCell id="UnUnKvQV5A7Vc4DDt37c-41" value="" style="shape=mxgraph.arrows.two_way_arrow_vertical;whiteSpace=wrap;html=1;fillColor=#ffffff;strokeColor=#000000;strokeWidth=2;rounded=0;fontSize=26;" vertex="1" parent="1">
          <mxGeometry x="1207.5" y="213" width="135" height="45" as="geometry" />
        </mxCell>
        <mxCell id="UnUnKvQV5A7Vc4DDt37c-42" value="" style="shape=mxgraph.arrows.two_way_arrow_horizontal;whiteSpace=wrap;html=1;fillColor=#ffffff;strokeColor=#000000;strokeWidth=2;rounded=0;fontSize=26;" vertex="1" parent="1">
          <mxGeometry x="1003" y="385" width="47" height="110" as="geometry" />
        </mxCell>
        <mxCell id="UnUnKvQV5A7Vc4DDt37c-43" value="" style="rounded=0;whiteSpace=wrap;html=1;" vertex="1" parent="1">
          <mxGeometry x="20" y="670" width="1480" height="505" as="geometry" />
        </mxCell>
        <mxCell id="UnUnKvQV5A7Vc4DDt37c-44" value="" style="rounded=0;whiteSpace=wrap;html=1;fontSize=26;" vertex="1" parent="1">
          <mxGeometry x="120" y="750" width="1330" height="77" as="geometry" />
        </mxCell>
        <mxCell id="UnUnKvQV5A7Vc4DDt37c-45" value="服务中台" style="text;html=1;align=center;verticalAlign=middle;resizable=0;points=[];autosize=1;fontSize=26;fontStyle=1" vertex="1" parent="1">
          <mxGeometry x="150" y="770" width="120" height="40" as="geometry" />
        </mxCell>
        <mxCell id="UnUnKvQV5A7Vc4DDt37c-46" value="&lt;font style=&quot;font-size: 22px;&quot;&gt;基础设施（云平台）&lt;/font&gt;" style="rounded=0;whiteSpace=wrap;html=1;fontSize=26;dashed=1;" vertex="1" parent="1">
          <mxGeometry x="295" y="770" width="405" height="40" as="geometry" />
        </mxCell>
        <mxCell id="UnUnKvQV5A7Vc4DDt37c-47" value="&lt;span style=&quot;color: rgb(29, 0, 255); font-size: 30px; font-weight: 700;&quot;&gt;支撑及保障&lt;/span&gt;" style="rounded=0;whiteSpace=wrap;html=1;fontSize=26;strokeColor=none;" vertex="1" parent="1">
          <mxGeometry x="50" y="822.5" width="40" height="200" as="geometry" />
        </mxCell>
        <mxCell id="UnUnKvQV5A7Vc4DDt37c-48" value="&lt;font style=&quot;font-size: 22px;&quot;&gt;应用支撑（实时仿真系统、人工智能系统、物联网系统······）&lt;/font&gt;" style="rounded=0;whiteSpace=wrap;html=1;fontSize=26;dashed=1;" vertex="1" parent="1">
          <mxGeometry x="756" y="770" width="650" height="40" as="geometry" />
        </mxCell>
        <mxCell id="UnUnKvQV5A7Vc4DDt37c-49" value="" style="rounded=0;whiteSpace=wrap;html=1;fontSize=26;" vertex="1" parent="1">
          <mxGeometry x="120" y="847" width="1330" height="77" as="geometry" />
        </mxCell>
        <mxCell id="UnUnKvQV5A7Vc4DDt37c-50" value="数据中台" style="text;html=1;align=center;verticalAlign=middle;resizable=0;points=[];autosize=1;fontSize=26;fontStyle=1" vertex="1" parent="1">
          <mxGeometry x="150" y="867" width="120" height="40" as="geometry" />
        </mxCell>
        <mxCell id="UnUnKvQV5A7Vc4DDt37c-51" value="&lt;font style=&quot;font-size: 22px;&quot;&gt;数据采集&lt;/font&gt;" style="rounded=0;whiteSpace=wrap;html=1;fontSize=26;dashed=1;" vertex="1" parent="1">
          <mxGeometry x="295" y="867" width="155" height="40" as="geometry" />
        </mxCell>
        <mxCell id="UnUnKvQV5A7Vc4DDt37c-52" value="&lt;font style=&quot;font-size: 22px;&quot;&gt;······&lt;/font&gt;" style="rounded=0;whiteSpace=wrap;html=1;fontSize=26;dashed=1;" vertex="1" parent="1">
          <mxGeometry x="1251" y="867" width="155" height="40" as="geometry" />
        </mxCell>
        <mxCell id="UnUnKvQV5A7Vc4DDt37c-53" value="&lt;font style=&quot;font-size: 22px;&quot;&gt;数据整合&lt;/font&gt;" style="rounded=0;whiteSpace=wrap;html=1;fontSize=26;dashed=1;" vertex="1" parent="1">
          <mxGeometry x="767" y="865.5" width="155" height="40" as="geometry" />
        </mxCell>
        <mxCell id="UnUnKvQV5A7Vc4DDt37c-54" value="&lt;font style=&quot;font-size: 22px;&quot;&gt;数据处理&lt;/font&gt;" style="rounded=0;whiteSpace=wrap;html=1;fontSize=26;dashed=1;" vertex="1" parent="1">
          <mxGeometry x="532" y="867" width="155" height="40" as="geometry" />
        </mxCell>
        <mxCell id="UnUnKvQV5A7Vc4DDt37c-55" value="&lt;font style=&quot;font-size: 22px;&quot;&gt;数据分析&lt;/font&gt;" style="rounded=0;whiteSpace=wrap;html=1;fontSize=26;dashed=1;" vertex="1" parent="1">
          <mxGeometry x="1012.5" y="865.5" width="155" height="40" as="geometry" />
        </mxCell>
        <mxCell id="UnUnKvQV5A7Vc4DDt37c-56" value="" style="rounded=0;whiteSpace=wrap;html=1;fontSize=26;" vertex="1" parent="1">
          <mxGeometry x="120" y="944" width="1330" height="77" as="geometry" />
        </mxCell>
        <mxCell id="UnUnKvQV5A7Vc4DDt37c-57" value="融合通信" style="text;html=1;align=center;verticalAlign=middle;resizable=0;points=[];autosize=1;fontSize=26;fontStyle=1" vertex="1" parent="1">
          <mxGeometry x="150" y="964" width="120" height="40" as="geometry" />
        </mxCell>
        <mxCell id="UnUnKvQV5A7Vc4DDt37c-58" value="&lt;font style=&quot;font-size: 22px;&quot;&gt;路-路通信&lt;/font&gt;" style="rounded=0;whiteSpace=wrap;html=1;fontSize=26;dashed=1;" vertex="1" parent="1">
          <mxGeometry x="295" y="964" width="155" height="40" as="geometry" />
        </mxCell>
        <mxCell id="UnUnKvQV5A7Vc4DDt37c-59" value="&lt;font style=&quot;font-size: 22px;&quot;&gt;车-中心通信&lt;/font&gt;" style="rounded=0;whiteSpace=wrap;html=1;fontSize=26;dashed=1;" vertex="1" parent="1">
          <mxGeometry x="1251" y="964" width="155" height="40" as="geometry" />
        </mxCell>
        <mxCell id="UnUnKvQV5A7Vc4DDt37c-60" value="&lt;font style=&quot;font-size: 22px;&quot;&gt;车-路通信&lt;/font&gt;" style="rounded=0;whiteSpace=wrap;html=1;fontSize=26;dashed=1;" vertex="1" parent="1">
          <mxGeometry x="767" y="962.5" width="155" height="40" as="geometry" />
        </mxCell>
        <mxCell id="UnUnKvQV5A7Vc4DDt37c-61" value="&lt;font style=&quot;font-size: 22px;&quot;&gt;车-车通信&lt;/font&gt;" style="rounded=0;whiteSpace=wrap;html=1;fontSize=26;dashed=1;" vertex="1" parent="1">
          <mxGeometry x="532" y="964" width="155" height="40" as="geometry" />
        </mxCell>
        <mxCell id="UnUnKvQV5A7Vc4DDt37c-62" value="&lt;font style=&quot;font-size: 22px;&quot;&gt;路-中心通信&lt;/font&gt;" style="rounded=0;whiteSpace=wrap;html=1;fontSize=26;dashed=1;" vertex="1" parent="1">
          <mxGeometry x="1012.5" y="962.5" width="155" height="40" as="geometry" />
        </mxCell>
        <mxCell id="UnUnKvQV5A7Vc4DDt37c-63" value="" style="rounded=0;whiteSpace=wrap;html=1;fontSize=26;" vertex="1" parent="1">
          <mxGeometry x="120" y="1041" width="1330" height="109" as="geometry" />
        </mxCell>
        <mxCell id="UnUnKvQV5A7Vc4DDt37c-64" value="设施供电" style="text;html=1;align=center;verticalAlign=middle;resizable=0;points=[];autosize=1;fontSize=26;fontStyle=1" vertex="1" parent="1">
          <mxGeometry x="152.5" y="1074.75" width="120" height="40" as="geometry" />
        </mxCell>
        <mxCell id="UnUnKvQV5A7Vc4DDt37c-65" value="&lt;font style=&quot;font-size: 22px;&quot;&gt;低压直供&lt;/font&gt;" style="rounded=0;whiteSpace=wrap;html=1;fontSize=26;dashed=1;" vertex="1" parent="1">
          <mxGeometry x="295" y="1061" width="155" height="69" as="geometry" />
        </mxCell>
        <mxCell id="UnUnKvQV5A7Vc4DDt37c-66" value="&lt;font style=&quot;font-size: 22px;&quot;&gt;······&lt;/font&gt;" style="rounded=0;whiteSpace=wrap;html=1;fontSize=26;dashed=1;" vertex="1" parent="1">
          <mxGeometry x="1251" y="1061" width="155" height="69" as="geometry" />
        </mxCell>
        <mxCell id="UnUnKvQV5A7Vc4DDt37c-67" value="&lt;span style=&quot;font-size: 22px;&quot;&gt;交/直供电&lt;/span&gt;" style="rounded=0;whiteSpace=wrap;html=1;fontSize=26;dashed=1;" vertex="1" parent="1">
          <mxGeometry x="767" y="1059.5" width="155" height="70.5" as="geometry" />
        </mxCell>
        <mxCell id="UnUnKvQV5A7Vc4DDt37c-68" value="&lt;font style=&quot;font-size: 22px;&quot;&gt;中压供电&lt;/font&gt;" style="rounded=0;whiteSpace=wrap;html=1;fontSize=26;dashed=1;" vertex="1" parent="1">
          <mxGeometry x="532" y="1061" width="155" height="69" as="geometry" />
        </mxCell>
        <mxCell id="UnUnKvQV5A7Vc4DDt37c-69" value="&lt;font style=&quot;font-size: 22px;&quot;&gt;新能源微电网供电&lt;/font&gt;" style="rounded=0;whiteSpace=wrap;html=1;fontSize=26;dashed=1;" vertex="1" parent="1">
          <mxGeometry x="1012.5" y="1059.5" width="155" height="70.5" as="geometry" />
        </mxCell>
        <mxCell id="UnUnKvQV5A7Vc4DDt37c-70" value="" style="shape=mxgraph.arrows.two_way_arrow_vertical;whiteSpace=wrap;html=1;fillColor=#ffffff;strokeColor=#000000;strokeWidth=2;rounded=0;fontSize=26;" vertex="1" parent="1">
          <mxGeometry x="442.5" y="622" width="135" height="45" as="geometry" />
        </mxCell>
        <mxCell id="UnUnKvQV5A7Vc4DDt37c-71" value="" style="shape=mxgraph.arrows.two_way_arrow_vertical;whiteSpace=wrap;html=1;fillColor=#ffffff;strokeColor=#000000;strokeWidth=2;rounded=0;fontSize=26;" vertex="1" parent="1">
          <mxGeometry x="1207.5" y="622" width="135" height="45" as="geometry" />
        </mxCell>
        <mxCell id="UnUnKvQV5A7Vc4DDt37c-72" value="" style="rounded=0;whiteSpace=wrap;html=1;" vertex="1" parent="1">
          <mxGeometry x="20" y="1225" width="1480" height="365" as="geometry" />
        </mxCell>
        <mxCell id="UnUnKvQV5A7Vc4DDt37c-73" value="" style="rounded=0;whiteSpace=wrap;html=1;fontSize=26;" vertex="1" parent="1">
          <mxGeometry x="120" y="1305" width="520" height="265" as="geometry" />
        </mxCell>
        <mxCell id="UnUnKvQV5A7Vc4DDt37c-74" value="公路主体及附属设施监测" style="text;html=1;align=center;verticalAlign=middle;resizable=0;points=[];autosize=1;fontSize=26;fontStyle=1" vertex="1" parent="1">
          <mxGeometry x="312.5" y="1325" width="120" height="40" as="geometry" />
        </mxCell>
        <mxCell id="UnUnKvQV5A7Vc4DDt37c-75" value="&lt;font style=&quot;font-size: 22px;&quot;&gt;桥梁健&lt;br /&gt;康监测&lt;/font&gt;" style="rounded=0;whiteSpace=wrap;html=1;fontSize=26;dashed=1;" vertex="1" parent="1">
          <mxGeometry x="140" y="1460" width="90" height="80" as="geometry" />
        </mxCell>
        <mxCell id="UnUnKvQV5A7Vc4DDt37c-76" value="&lt;span style=&quot;color: rgb(29, 0, 255); font-size: 30px; font-weight: 700;&quot;&gt;全要素感知&lt;/span&gt;" style="rounded=0;whiteSpace=wrap;html=1;fontSize=26;strokeColor=none;" vertex="1" parent="1">
          <mxGeometry x="50" y="1307.5" width="40" height="200" as="geometry" />
        </mxCell>
        <mxCell id="UnUnKvQV5A7Vc4DDt37c-77" value="" style="shape=mxgraph.arrows.two_way_arrow_vertical;whiteSpace=wrap;html=1;fillColor=#ffffff;strokeColor=#000000;strokeWidth=2;rounded=0;fontSize=26;" vertex="1" parent="1">
          <mxGeometry x="717.5" y="1178" width="135" height="45" as="geometry" />
        </mxCell>
        <mxCell id="UnUnKvQV5A7Vc4DDt37c-78" value="&lt;span style=&quot;font-size: 22px;&quot;&gt;隧道状&lt;br /&gt;态监测&lt;/span&gt;" style="rounded=0;whiteSpace=wrap;html=1;fontSize=26;dashed=1;" vertex="1" parent="1">
          <mxGeometry x="240" y="1460" width="90" height="80" as="geometry" />
        </mxCell>
        <mxCell id="UnUnKvQV5A7Vc4DDt37c-79" value="&lt;span style=&quot;font-size: 22px;&quot;&gt;道路状&lt;br /&gt;态监测&lt;/span&gt;" style="rounded=0;whiteSpace=wrap;html=1;fontSize=26;dashed=1;" vertex="1" parent="1">
          <mxGeometry x="340" y="1460" width="90" height="80" as="geometry" />
        </mxCell>
        <mxCell id="UnUnKvQV5A7Vc4DDt37c-80" value="&lt;span style=&quot;font-size: 22px;&quot;&gt;交通工程及沿线&lt;br /&gt;设施状态监测&lt;br /&gt;&lt;/span&gt;" style="rounded=0;whiteSpace=wrap;html=1;fontSize=26;dashed=1;" vertex="1" parent="1">
          <mxGeometry x="440" y="1460" width="180" height="80" as="geometry" />
        </mxCell>
        <mxCell id="UnUnKvQV5A7Vc4DDt37c-81" value="" style="rounded=0;whiteSpace=wrap;html=1;fontSize=26;" vertex="1" parent="1">
          <mxGeometry x="670" y="1305" width="460" height="265" as="geometry" />
        </mxCell>
        <mxCell id="UnUnKvQV5A7Vc4DDt37c-82" value="公路交通运行状态监测" style="text;html=1;align=center;verticalAlign=middle;resizable=0;points=[];autosize=1;fontSize=26;fontStyle=1" vertex="1" parent="1">
          <mxGeometry x="840" y="1325" width="120" height="40" as="geometry" />
        </mxCell>
        <mxCell id="UnUnKvQV5A7Vc4DDt37c-83" value="&lt;span style=&quot;font-size: 22px;&quot;&gt;全景视频监控&lt;/span&gt;" style="rounded=0;whiteSpace=wrap;html=1;fontSize=26;dashed=1;" vertex="1" parent="1">
          <mxGeometry x="690" y="1460" width="90" height="80" as="geometry" />
        </mxCell>
        <mxCell id="UnUnKvQV5A7Vc4DDt37c-84" value="&lt;span style=&quot;font-size: 22px;&quot;&gt;交通参数监测&lt;/span&gt;" style="rounded=0;whiteSpace=wrap;html=1;fontSize=26;dashed=1;" vertex="1" parent="1">
          <mxGeometry x="790" y="1460" width="90" height="80" as="geometry" />
        </mxCell>
        <mxCell id="UnUnKvQV5A7Vc4DDt37c-85" value="&lt;span style=&quot;font-size: 22px;&quot;&gt;公路事件监测&lt;/span&gt;" style="rounded=0;whiteSpace=wrap;html=1;fontSize=26;dashed=1;" vertex="1" parent="1">
          <mxGeometry x="890" y="1460" width="90" height="80" as="geometry" />
        </mxCell>
        <mxCell id="UnUnKvQV5A7Vc4DDt37c-86" value="&lt;span style=&quot;font-size: 22px;&quot;&gt;车辆运行&lt;br /&gt;监测&lt;br /&gt;&lt;/span&gt;" style="rounded=0;whiteSpace=wrap;html=1;fontSize=26;dashed=1;" vertex="1" parent="1">
          <mxGeometry x="990" y="1460" width="120" height="80" as="geometry" />
        </mxCell>
        <mxCell id="UnUnKvQV5A7Vc4DDt37c-87" value="" style="rounded=0;whiteSpace=wrap;html=1;fontSize=26;" vertex="1" parent="1">
          <mxGeometry x="1140" y="1305" width="310" height="265" as="geometry" />
        </mxCell>
        <mxCell id="UnUnKvQV5A7Vc4DDt37c-88" value="公路气象环境监测" style="text;html=1;align=center;verticalAlign=middle;resizable=0;points=[];autosize=1;fontSize=26;fontStyle=1" vertex="1" parent="1">
          <mxGeometry x="1235" y="1325" width="120" height="40" as="geometry" />
        </mxCell>
        <mxCell id="UnUnKvQV5A7Vc4DDt37c-89" value="&lt;span style=&quot;font-size: 22px;&quot;&gt;公路气&lt;br /&gt;象监测&lt;/span&gt;" style="rounded=0;whiteSpace=wrap;html=1;fontSize=26;dashed=1;" vertex="1" parent="1">
          <mxGeometry x="1245" y="1460" width="110" height="80" as="geometry" />
        </mxCell>
        <mxCell id="UnUnKvQV5A7Vc4DDt37c-90" value="" style="rounded=0;whiteSpace=wrap;html=1;fontSize=26;" vertex="1" parent="1">
          <mxGeometry x="1580" y="30" width="270" height="1560" as="geometry" />
        </mxCell>
        <mxCell id="UnUnKvQV5A7Vc4DDt37c-91" value="&lt;font style=&quot;font-size: 22px;&quot;&gt;5G&lt;/font&gt;" style="rounded=0;whiteSpace=wrap;html=1;fontSize=26;dashed=1;" vertex="1" parent="1">
          <mxGeometry x="1620" y="110" width="190" height="60" as="geometry" />
        </mxCell>
        <mxCell id="UnUnKvQV5A7Vc4DDt37c-92" value="&lt;font color=&quot;#1d00ff&quot; style=&quot;font-size: 30px;&quot;&gt;新技术应用&lt;br /&gt;&lt;/font&gt;" style="text;html=1;align=center;verticalAlign=middle;resizable=0;points=[];autosize=1;fontSize=30;fontStyle=1" vertex="1" parent="1">
          <mxGeometry x="1570" y="50" width="290" height="40" as="geometry" />
        </mxCell>
        <mxCell id="UnUnKvQV5A7Vc4DDt37c-93" value="&lt;font style=&quot;font-size: 22px;&quot;&gt;······&lt;/font&gt;" style="rounded=0;whiteSpace=wrap;html=1;fontSize=26;dashed=1;" vertex="1" parent="1">
          <mxGeometry x="1620" y="1498" width="190" height="60" as="geometry" />
        </mxCell>
        <mxCell id="UnUnKvQV5A7Vc4DDt37c-94" value="&lt;font style=&quot;font-size: 22px;&quot;&gt;高精度地图&lt;/font&gt;" style="rounded=0;whiteSpace=wrap;html=1;fontSize=26;dashed=1;" vertex="1" parent="1">
          <mxGeometry x="1620" y="805.5" width="190" height="60" as="geometry" />
        </mxCell>
        <mxCell id="UnUnKvQV5A7Vc4DDt37c-95" value="&lt;font style=&quot;font-size: 22px;&quot;&gt;C-V2X&lt;/font&gt;" style="rounded=0;whiteSpace=wrap;html=1;fontSize=26;dashed=1;" vertex="1" parent="1">
          <mxGeometry x="1620" y="213" width="190" height="60" as="geometry" />
        </mxCell>
        <mxCell id="UnUnKvQV5A7Vc4DDt37c-96" value="&lt;font style=&quot;font-size: 22px;&quot;&gt;云计算&lt;/font&gt;" style="rounded=0;whiteSpace=wrap;html=1;fontSize=26;dashed=1;" vertex="1" parent="1">
          <mxGeometry x="1620" y="312" width="190" height="60" as="geometry" />
        </mxCell>
        <mxCell id="UnUnKvQV5A7Vc4DDt37c-97" value="&lt;font style=&quot;font-size: 22px;&quot;&gt;边缘计算&lt;/font&gt;" style="rounded=0;whiteSpace=wrap;html=1;fontSize=26;dashed=1;" vertex="1" parent="1">
          <mxGeometry x="1620" y="407" width="190" height="60" as="geometry" />
        </mxCell>
        <mxCell id="UnUnKvQV5A7Vc4DDt37c-98" value="&lt;font style=&quot;font-size: 22px;&quot;&gt;BIM&lt;/font&gt;" style="rounded=0;whiteSpace=wrap;html=1;fontSize=26;dashed=1;" vertex="1" parent="1">
          <mxGeometry x="1620" y="506" width="190" height="60" as="geometry" />
        </mxCell>
        <mxCell id="UnUnKvQV5A7Vc4DDt37c-99" value="&lt;font style=&quot;font-size: 22px;&quot;&gt;区块链&lt;/font&gt;" style="rounded=0;whiteSpace=wrap;html=1;fontSize=26;dashed=1;" vertex="1" parent="1">
          <mxGeometry x="1620" y="611" width="190" height="60" as="geometry" />
        </mxCell>
        <mxCell id="UnUnKvQV5A7Vc4DDt37c-100" value="&lt;font style=&quot;font-size: 22px;&quot;&gt;数字孪生&lt;/font&gt;" style="rounded=0;whiteSpace=wrap;html=1;fontSize=26;dashed=1;" vertex="1" parent="1">
          <mxGeometry x="1620" y="710" width="190" height="60" as="geometry" />
        </mxCell>
        <mxCell id="UnUnKvQV5A7Vc4DDt37c-101" value="&lt;span style=&quot;font-size: 22px;&quot;&gt;大数据&lt;/span&gt;" style="rounded=0;whiteSpace=wrap;html=1;fontSize=26;dashed=1;" vertex="1" parent="1">
          <mxGeometry x="1620" y="903" width="190" height="60" as="geometry" />
        </mxCell>
        <mxCell id="UnUnKvQV5A7Vc4DDt37c-102" value="&lt;font style=&quot;font-size: 22px;&quot;&gt;SD-WAN&lt;/font&gt;" style="rounded=0;whiteSpace=wrap;html=1;fontSize=26;dashed=1;" vertex="1" parent="1">
          <mxGeometry x="1620" y="1002" width="190" height="60" as="geometry" />
        </mxCell>
        <mxCell id="UnUnKvQV5A7Vc4DDt37c-103" value="&lt;font style=&quot;font-size: 22px;&quot;&gt;物联网&lt;/font&gt;" style="rounded=0;whiteSpace=wrap;html=1;fontSize=26;dashed=1;" vertex="1" parent="1">
          <mxGeometry x="1620" y="1097" width="190" height="60" as="geometry" />
        </mxCell>
        <mxCell id="UnUnKvQV5A7Vc4DDt37c-104" value="&lt;font style=&quot;font-size: 22px;&quot;&gt;北斗&lt;/font&gt;" style="rounded=0;whiteSpace=wrap;html=1;fontSize=26;dashed=1;" vertex="1" parent="1">
          <mxGeometry x="1620" y="1196" width="190" height="60" as="geometry" />
        </mxCell>
        <mxCell id="UnUnKvQV5A7Vc4DDt37c-105" value="&lt;font style=&quot;font-size: 22px;&quot;&gt;高分遥感&lt;/font&gt;" style="rounded=0;whiteSpace=wrap;html=1;fontSize=26;dashed=1;" vertex="1" parent="1">
          <mxGeometry x="1620" y="1301" width="190" height="60" as="geometry" />
        </mxCell>
        <mxCell id="UnUnKvQV5A7Vc4DDt37c-106" value="&lt;font style=&quot;font-size: 22px;&quot;&gt;人工智能&lt;/font&gt;" style="rounded=0;whiteSpace=wrap;html=1;fontSize=26;dashed=1;" vertex="1" parent="1">
          <mxGeometry x="1620" y="1400" width="190" height="60" as="geometry" />
        </mxCell>
        <mxCell id="UnUnKvQV5A7Vc4DDt37c-107" value="" style="shape=mxgraph.arrows.two_way_arrow_horizontal;whiteSpace=wrap;html=1;fillColor=#ffffff;strokeColor=#000000;strokeWidth=2;rounded=0;fontSize=26;" vertex="1" parent="1">
          <mxGeometry x="1510" y="65" width="60" height="110" as="geometry" />
        </mxCell>
        <mxCell id="UnUnKvQV5A7Vc4DDt37c-108" value="" style="shape=mxgraph.arrows.two_way_arrow_horizontal;whiteSpace=wrap;html=1;fillColor=#ffffff;strokeColor=#000000;strokeWidth=2;rounded=0;fontSize=26;" vertex="1" parent="1">
          <mxGeometry x="1510" y="379" width="60" height="110" as="geometry" />
        </mxCell>
        <mxCell id="UnUnKvQV5A7Vc4DDt37c-109" value="" style="shape=mxgraph.arrows.two_way_arrow_horizontal;whiteSpace=wrap;html=1;fillColor=#ffffff;strokeColor=#000000;strokeWidth=2;rounded=0;fontSize=26;" vertex="1" parent="1">
          <mxGeometry x="1510" y="867.5" width="60" height="110" as="geometry" />
        </mxCell>
        <mxCell id="UnUnKvQV5A7Vc4DDt37c-110" value="" style="shape=mxgraph.arrows.two_way_arrow_horizontal;whiteSpace=wrap;html=1;fillColor=#ffffff;strokeColor=#000000;strokeWidth=2;rounded=0;fontSize=26;" vertex="1" parent="1">
          <mxGeometry x="1510" y="1352.5" width="60" height="110" as="geometry" />
        </mxCell>
        <mxCell id="UnUnKvQV5A7Vc4DDt37c-111" value="" style="shape=image;verticalLabelPosition=bottom;labelBackgroundColor=#ffffff;verticalAlign=top;aspect=fixed;imageAspect=0;image=data:image/png,iVBORw0KGgoAAAANSUhEUgAAAEgAAAAxCAIAAAD2ongZAAAAGXRFWHRTb2Z0d2FyZQBBZG9iZSBJbWFnZVJlYWR5ccllPAAAAyZpVFh0WE1MOmNvbS5hZG9iZS54bXAAAAAAADw/eHBhY2tldCBiZWdpbj0i77u/IiBpZD0iVzVNME1wQ2VoaUh6cmVTek5UY3prYzlkIj8+IDx4OnhtcG1ldGEgeG1sbnM6eD0iYWRvYmU6bnM6bWV0YS8iIHg6eG1wdGs9IkFkb2JlIFhNUCBDb3JlIDUuNi1jMTQ1IDc5LjE2MzQ5OSwgMjAxOC8wOC8xMy0xNjo0MDoyMiAgICAgICAgIj4gPHJkZjpSREYgeG1sbnM6cmRmPSJodHRwOi8vd3d3LnczLm9yZy8xOTk5LzAyLzIyLXJkZi1zeW50YXgtbnMjIj4gPHJkZjpEZXNjcmlwdGlvbiByZGY6YWJvdXQ9IiIgeG1sbnM6eG1wPSJodHRwOi8vbnMuYWRvYmUuY29tL3hhcC8xLjAvIiB4bWxuczp4bXBNTT0iaHR0cDovL25zLmFkb2JlLmNvbS94YXAvMS4wL21tLyIgeG1sbnM6c3RSZWY9Imh0dHA6Ly9ucy5hZG9iZS5jb20veGFwLzEuMC9zVHlwZS9SZXNvdXJjZVJlZiMiIHhtcDpDcmVhdG9yVG9vbD0iQWRvYmUgUGhvdG9zaG9wIENDIDIwMTkgKFdpbmRvd3MpIiB4bXBNTTpJbnN0YW5jZUlEPSJ4bXAuaWlkOjhGMEFENEQ1NTAyMzExRUNCQTk2QUZGOEQ5MDUyRjIwIiB4bXBNTTpEb2N1bWVudElEPSJ4bXAuZGlkOjhGMEFENEQ2NTAyMzExRUNCQTk2QUZGOEQ5MDUyRjIwIj4gPHhtcE1NOkRlcml2ZWRGcm9tIHN0UmVmOmluc3RhbmNlSUQ9InhtcC5paWQ6OEVEMzc4MTk1MDIzMTFFQ0JBOTZBRkY4RDkwNTJGMjAiIHN0UmVmOmRvY3VtZW50SUQ9InhtcC5kaWQ6OEVEMzc4MUE1MDIzMTFFQ0JBOTZBRkY4RDkwNTJGMjAiLz4gPC9yZGY6RGVzY3JpcHRpb24+IDwvcmRmOlJERj4gPC94OnhtcG1ldGE+IDw/eHBhY2tldCBlbmQ9InIiPz6UieUAAAAKNklEQVR42uxaSXMbxxmd7tkHA8xgB0FStCRKsktKdMtyy8H3XPxnYzupyiEHV6VcUcmyHUm2CJIgARDrALNhtrzuAUhGsl0SBS1x1NiIZQb9+n3f+97XIMmyTPg1Dir8SsevFpj0Fr7jl6OdEPK/ByyH9PJpvEGQ0puDlOCSplmK+WbreV9AELIVCkrJ5aTYFDbpDUBKGKqUYcoAC6CyFwkh679JluSvsIeUEAqghLw+PGnzRCUpu6RxtsZEhDWGjJwTd65aWICLwwk+w6h8fXhkg3UMp4qTKEniFVdAlZHz0OM3BCX7PrxPV3OX6ApemsclZcBpTqkoEv7CO2UMM0uACSNdnkMRcvFYPWMZF4HRJBGSFDMWRUkSGcILXpKE8ZyJjDSRgjxJEq5GnbQxrhikCOjyjMouySIiM4qj0Wg8HI7OhkNnPg+8QFc1vVCoV/NR11RNlmWyCtSMR1JGOF0iB0koedvAeF5BMBhdiEAinFMl5IEXhOHcXRwcdp79cHDQ6YxGE3fh6nrBKpV2d7c/2ttLU1IpV80iRejl3PKwZREJSckhUSK+Em3SxuKQ39icaD41hgypBgZd1+2f9P793ZPvvvv++PhkNnM8L9QUtVA0x5OZuwhlSQMjuq6z6bAQFPJjcaMI4CuVgI0xhvzK0my12JwxPFlGkReGT3949vDhN988/PbZjx1nNg+CME4Tl/pz11u4gbvwg2C5WHgQC9u2CmYBB4IeyuhmkrICRZmWvDxEaSN0IbviJP4vt8Gvfhgi8B48ePTFF3896pxMZ44sKpTPLyIp8Eym88FgeHBwhLcMw7hx84amG5koUH486BJSgZXFjNXxjOvoWwKWprkcYqQrSWePXNMzwXXcw4PjTqfb7faXYSiJoiAydaA8hSALNGFnmDoOsH39r4cQFNsuKwo+KMKbMNJIKjL9ZJmG2qEoL6v+dBMqn2cYxJwtbZbfs/TKPNc7Pe33+v3xaAzFVBRZFrm853KOGcsS/gz8oN8ffP/tY9wH4DGKl8sIx2KEvhcul3HMFi4/81tijCV4xoABBpMvwmsyN1IpYcYqjiOGem0+Lt3zYM2tCKWo6gvXc5FuYYjn8dKfDbqgp6BrmlUVzDJOLon0zYpHHnwsoijhWogsSPmVXAg9Fw8UYNMsGIauKgpeBEQZpYlwIRfW9YAdkFJJUDVFliSIDxYi8P3p5ExO46WuWkQW5QKqXKZkF4uxcWApJwEBIyGQFDnJo2SFjeZWEADzkIEe7Oy0W416qVR0nHm0DKmiinzhCbP8rAynsGFRrGnKVrth2SVVg/Qz5wVBCjwUvLlgVJVipPBa+UYYc735fDo57nZm03G8DCVJltkiy4qhl0plXSsQKpFzsvi0NV1r1usf37k9Hk0eP3na7/Vilj/hymCwoktBZqVcu3lj7+7djxv1GljDu7ph1Fq7cRAAtmHa0JKLqr8pYNk6Z4HqqPPkq6/+fnz4I9ZZVlRVM81SsdHcuvPJfbm+Cwazi36LQdNURa5V7t39RGI6JyQR1H8cRX7KTwhmZFUplvTr13fv3b19/7d3y+WqJDM+TauE8p07akmUFByPldgIsNz+hWHo+z6sw2LhzsaHw8GzeDlS5BDfJ9KUCokznkSBUy5VNdks1zUIc74KmAZhTQjBUldrlU/IHVVV9/dvdrsn0+kUJ8QHMF27XG62GrvX9vZ2d6uVKhxjbjtyv0iBiYp5H/eq5uP5tqXX6z1+/OQvn3/+5Zd/Oz46Gg4neZHCW7dubO20LRLFrhucjWawOqpMnelClJV79+//6dNP//zZZyW7xDSECSQPNT4drpvshvtctFcawOYLAYLw541n3rileWe2Xl+mragMJctUdQS+fEXGwA/KznQ2g/A1EGTNpqzqbEB1S5IqJf3usTP38ElNk4qmrurIdTlJo9lsPB6fybB9usHX6/k1zrsPStO8IKyIuaAiFc7r+qrAEiZIvIJzxl6teXkemOM4T58+HfQGqEu39vcRIq0toMNoTKdn3aNn/5jPT3sDBEihqDRbliQbWSbOHLd32u0eH+i6oevF7PJ+wCrlmG2H1K91nr5Qa7N1Qq/aA0CBDqLhwd/MJYrwitLVgdXr9T/+4fe39m8hqyqVil22UYjy4fu7aDEqttU9PJg582Kx0GjUjIItScpkMkHzuFhMer1DlAHDtIAwdyErASTkuT0BXh5yPDlX2SVnIfKnsb9wF45jlS3D1FAkXqttqdVqpmnKfIjcTl9e1GW03N5uTs4GIBYhZ5crpl2BOM5nk4POD48efX02OIGbam1dQ9JTCXaJrhM/XQcYXQdeLpzPSR3HlrJSHoXLmTNzJqOSVdA09VVbl+eBsTaWbTaIPxnTcAaVStM07WgZoa+XFFmRFBYikgxr17Wqo1H/bNCdz2ft9l650jSMoqKoq/YsW8fnpdNeAiWual+SBL6LhRsNh6j9ODnKCuLl5WXjp4EBzM+fgkHWdBPXFwArlmXXqo3RCLJ6BBBB4NfnM8uqm0ULQg/kjEMqMb1kip5rA5cH6AjzaKhZSRgGcL1zx0FJQMUrWqVGqwXxUrgjezebOZpmbLW2uycHsBb9/hEmdnrSqdiNamOrXK6VraqiGaqiERFuEU0IXDHvtoAriZMlPBrK5Xw6Hk8m49ls6vlBnJBytb7d3jEN813uUiHT6vWtRmML/mi+cBbzWRQGgevCyyJ04VA0vahpBUXRRIlhI2wLUeDbWjEMGnP1ge95KDfM4SMCDaNk23alVtU07Z0C0w1FU1utnXb72uHRj77nCHHkzuewzBK6LknVjJKOMFYL8GKITMIUXwBXwIUlCJmbTuE1EK7o0op6oVqtVatVCPPVdk03uRMMEhrNnXu/+V0UR8j/yPfQbIpsCw3mIQF9cRL7gUepTEkuj3S1ScweIEEyL2JMutANfHR9r9qoXXkveLNb3NS2q6Iknp52hoPjSehDtgW+K4OilMVCDA8RLckKD1oBysNSYhYZWJF7XDkhFZZlbbVbtm29L3v3qgqDX2o1ts9a1+bOzAtCeGkWXaCIZpRyE8luqCcMWMY3CFbg4TLiTJRIsWSWK2UT5lCV3xdgwKDIWnvnOko5SbOTbmcyHqKPjKKlkCDEUirC+CkMCGONcjMIVgkSC1a+WLLQuVy/cWNndwfmDFS+Rz8jYTY7uzdLdqVoWgXzwaNv/jkdj3zPBWaRDZmKsQAUMH+ChBrGdutTQVG1gl6AJd2/dXv/9p1qvZ5bhffrhz9El2GY23s3ZdWoNbeHvZOzs1MWmZ4L9piHRKuCaISKiDKsGYiqQihqTRjuRrNple3XRLXhn5FeHMvlMlwGg95xr3t02u9OR0PX8yDsKfupgcWerGgly2602u32ztbWjmEir9TNSPQbBbZqw5d+6EFHWOVNeb1C8HEVZHuhMsBpumrohqrjyZV/EHurwH5un4u7e7q6vJlBPvxnzgdgH4B9APYB2P8DsP8IMAC5PelOM1F+AgAAAABJRU5ErkJggg==;" vertex="1" parent="1">
          <mxGeometry x="143" y="1379.79" width="87" height="59.21" as="geometry" />
        </mxCell>
        <mxCell id="UnUnKvQV5A7Vc4DDt37c-112" value="" style="shape=image;verticalLabelPosition=bottom;labelBackgroundColor=#ffffff;verticalAlign=top;aspect=fixed;imageAspect=0;image=data:image/png,iVBORw0KGgoAAAANSUhEUgAAAFIAAAAxCAIAAADGLmk4AAAAGXRFWHRTb2Z0d2FyZQBBZG9iZSBJbWFnZVJlYWR5ccllPAAAAyZpVFh0WE1MOmNvbS5hZG9iZS54bXAAAAAAADw/eHBhY2tldCBiZWdpbj0i77u/IiBpZD0iVzVNME1wQ2VoaUh6cmVTek5UY3prYzlkIj8+IDx4OnhtcG1ldGEgeG1sbnM6eD0iYWRvYmU6bnM6bWV0YS8iIHg6eG1wdGs9IkFkb2JlIFhNUCBDb3JlIDUuNi1jMTQ1IDc5LjE2MzQ5OSwgMjAxOC8wOC8xMy0xNjo0MDoyMiAgICAgICAgIj4gPHJkZjpSREYgeG1sbnM6cmRmPSJodHRwOi8vd3d3LnczLm9yZy8xOTk5LzAyLzIyLXJkZi1zeW50YXgtbnMjIj4gPHJkZjpEZXNjcmlwdGlvbiByZGY6YWJvdXQ9IiIgeG1sbnM6eG1wPSJodHRwOi8vbnMuYWRvYmUuY29tL3hhcC8xLjAvIiB4bWxuczp4bXBNTT0iaHR0cDovL25zLmFkb2JlLmNvbS94YXAvMS4wL21tLyIgeG1sbnM6c3RSZWY9Imh0dHA6Ly9ucy5hZG9iZS5jb20veGFwLzEuMC9zVHlwZS9SZXNvdXJjZVJlZiMiIHhtcDpDcmVhdG9yVG9vbD0iQWRvYmUgUGhvdG9zaG9wIENDIDIwMTkgKFdpbmRvd3MpIiB4bXBNTTpJbnN0YW5jZUlEPSJ4bXAuaWlkOjhGMEFENERENTAyMzExRUNCQTk2QUZGOEQ5MDUyRjIwIiB4bXBNTTpEb2N1bWVudElEPSJ4bXAuZGlkOjhGMEFENERFNTAyMzExRUNCQTk2QUZGOEQ5MDUyRjIwIj4gPHhtcE1NOkRlcml2ZWRGcm9tIHN0UmVmOmluc3RhbmNlSUQ9InhtcC5paWQ6OEYwQUQ0REI1MDIzMTFFQ0JBOTZBRkY4RDkwNTJGMjAiIHN0UmVmOmRvY3VtZW50SUQ9InhtcC5kaWQ6OEYwQUQ0REM1MDIzMTFFQ0JBOTZBRkY4RDkwNTJGMjAiLz4gPC9yZGY6RGVzY3JpcHRpb24+IDwvcmRmOlJERj4gPC94OnhtcG1ldGE+IDw/eHBhY2tldCBlbmQ9InIiPz5p4eueAAAPVUlEQVR42uxaaXPbRhLFzOAgKF46LUv+kHLsTbyJc/z/f5CqTXk/bXZjW6U40WVJpCiSuGf2dTcBURZly6ktK7UJRNMgCMzM6+P1MVTOOe/Pd/gf+4CISSmFU379juM9T1WYgF4YHy/rOWsrZzUOY/gGVb8wSnOCl7VO2XpgrZWuRzR3gQ1UVVUZYwDM8WEtzco4Be38Nnz/UZJaPOph1DVBXN2lrr7CzFY388qBJVW2KvGvEh14QRB42kBUjqeDDFw9j9Hqw7CBuSgKPImB8F6WJa5oLeImWYg4GMw7i1muSdzmSBeWlaB5La5G1ajELjyrrt4V/ZGa1aKMPKwpy/IkSbIix8cgCLudXhAaqFjgVpVlxSifZlQfZ+R4rF4o5ja1kpVIh01A33xoqWKNMQtXbj6la9jWVVBlNRyNRsNRlmUF5O5snudpmgEMKaEss7zAV5PpNElS3/cHg8Hjx4+3Hm6vb2w2CzDQU2CWamYJbFFsY9JYriDH+6KtfhQR3jb3MpEpWC4wHR0cvn69Nx6P0zQtnZ3OZjgvCrJEAM7yHP8uLyezJAnCcHdnl4TiVNzuyuIh2TCAQJZq+hZtN6uEhQs80VVznYznPUP+DopzDW6VpcXofPjq1d6LFy/Oz8+TLDO+n6XZbDYFh1WlTTMgtMrT09kU4vD9IAqi8XiazNI8Ldir4OKqCHwYStwK8fWHYYthw85mM5IqWBWkGEVRq9VaFAp7uLeo8rtq1L3/ggZTJbNseD48/O3o9OwszbMwivKiSGYJJoHLJllK/mzClFRe5EU5nSU57ihKYSVRFbwBAgiM9u4IG5ocjSYwqtlshoeBudfrCcPRA75/xefVNQtV+nYLEKq23k3nUPLglZ0bftFYWoGGwUo+QhlRI8CU8AGm6aAiSw4jcLqmm6EqD17QwMb9WheVDb07BjDY9uHh4cuXL0ErcC0of3V1dWNjQ9WH3MYhzCzqH//Ds4iy5nKZfwN+WOTnq9vr8cQfOfK46WQCVZ+enoPOcJtvfKZA+LyDIZBCy1J40UAVxuCzMQEEBMmC8xqGwhu5gr2bbwMzjHt/f/+HH344OTkZX1yAPKHtzc1NoTeJ5LACRWQZyApk9ewgpiHF5iICzCI7yLf6+jEPjIhMaQIrOzw4AktBbYaiMTTpqqLK6SBbdsR9JoTjRbHn5caEGM8x7HpezVcMOfpd0xVrp9Mp6GQymVxOLkGYFxcXsPkwpNU3sOH1nvMZNemY3sgoGbbRcpVx4j8nS5ErMFpjdL04xzfMo7euXFnAZTPMCMedk0hJ2QOQUxJC+ZvBKVzdh7r9MM9LcWw6yQqZBHq2Bq+8qoI7wQaeNEmAFRPDwjE3AAMGcgMIF8hrC8ehPeuzQV+pzhhYJQlgDn6ePLo6NEIoFBQ585k7NKda4pAu8FQpISrL2LfZnymSWwlveMr3dQWQaVZElARBIsBMPo+oXtq5o3l4hh5szP4DsAH1FI5Fqr4EhigK5+laVWJOwAalybo12NRvKV4dAzKUx7G2gb0x3eZEfEQeF0O0fHACwpHSuVDpLEtgZWlCwRnODKJ2RYZHeBmA5Dg5B5unQhZsfLbOeRSnro5p3Jtb5V1gw1ymlP1QSFhZAUwQeQTMUGIctzqdDvMIYzORr+dRDQ4oXj2XyJVvX3NmfNUEAsmCsDJglisQhs98B/byiCxVoUqcQp3CasCuVDVnRoqyjoTC+oSOFY8mFIExWWcRwJdMgc0yZK4lvs1kWWIIwQCceAAC6HZ7oPSmStEK16MmYFyj5noo0WdTP+BZjFOR1dqGKQo+IA5nTEXTOsTk3BQLliJ5sVRlugSl2Qq+AiuBP7I+iSXEQ9mIHKgPPBrHbVEkD3ItR34XdhAGUCnkhHM8jKE5FySagcFjlfIkJgj8lu+3nGXrrEs+IbZ3wEsVSFplziOPK6ua+cjU8ZH8AtLMKxrQOfga5sRXmHqaIv2+nExmeIDE5yyyFGTjYRiAbjJ4u/EZHvL29Pz8DB46HI6BAol6FO6sr8UfNnIMsQCbEKcZ/VGY1gqfBTYwRGE7DNp1ccox90rtejFpY8PWoCopZMSwAdZjLlTzwtBRjKW6w4nEoSXcnZflLE0ms+lkPPX5gLGD7WdJ2uv1yYyt47TSIlfJshQZx+u9vaOD48HaKuLb9oOe1g+VerdG8peWx2zVAQ/nWlELREoKB3jrGjspCuvrnHVNxuxIDYQfqq1TFoKE/0vmYq6KhMORe9g8y8naKQySnADXeGolijEILAvJNlSHAEUigHEU5bLEjzwoI0NExEmZIzRcklLpuNVuxytMTneiNMUBhp6MWgV7OLMiAcPw4DYxYkgd+S+yP8+JZklJcoLoK1GNOZtNGd7oDMiRcg8lDqawXNg2rQClEltpGITr/dUiz5GKl0cFlVx5zp0TJYSsOGiAUhwMqAwgVgoCFAcgFgSxAouN43hjfR3z9/v9bhdmGzZJoZDoctiCGXLq9nqnp2/B6lzxFfKoTC9sTNlkRXbhgZ556XTwSUAHYIb4KMzPjNiF+CA7YUpObvGMbrc7mA4G2et0tja2UGb/9NO//vniRVZkyJQyKjwMVUSYJzBByPNokidmkkRV7JcooiyAFqM9ePCg3W7jnL1V3dW3t7a2dnd3EcZGowsAwxUM0emstOM2hCaGhDffRxg30BKK3pD/wwkhDvgCYj7hJqVDGkgkj0+Of/7554vxxWwy4wwDLuFRhhm3sdbNtbUoCKfEXpN5EM1SkDbYzlK1QsoCf1BSwmxSIWsp4f+wFzIqqARZbRTFWBskwwRsJaTdrPnfhR3ysbOzAxo8OztD6kJms7GBj9vb2+vr66I6XGy3V/BiEbSi+ggZNl1kMXCg1nW273788R///s9PBwe/IeefIb0EHSeZMigPA6T9Ow8ffvv357D8vb29X968OTs9ExcIDSKYsprsnTRKLRa4kkLRCVMXmeKwnFNzNIm5+EHqlXAAv1YvLYctNIt1I0QDJ8wbmsfJ06dP8b62tiawWdsB27QfBGLcAlKSlnlOruv2HcfvYjQavn796vXrl/v7b/B1yQel4lojYkCPPljPU4hAeZFBbTxBgGuoqkHtxreGGRC0KDkKGzZCbIroBd0iL0aGmmYJ+ADKkIzjTtq2HIvgGHAPaBgOiXEBGOfQOUxdEkwekVMrKgxV7e3qtrYpSbOqkPBC1QcHB2/fHsNemhRAEhiQZ5FAfX7FkZxcqhVjsspVCSIZsg5uKcJnKO0O4WuU/XOyg7FLgm2oQQLmtZVrarylq1pCabgVZSacDThhh7iIcwAO2XBlECkkrqqq9/ZWGFXVHJgCmCXPrb8l5YGN356eRH7UJsCtuB0jL4S2wfjwdj9o2lgK5xgBFTfCBzBbh4hDsD0uQSj00JCl1p7Wdys8BQMGRQKElUGKuCTkvNg5vdHutgs9UHe9qyKta4/5BcspcYsIV2upWrWYmGVahpX7gUaFDpLw5TarxH1g3YprMiKXdozAhvDFOpf0ntKVspqnwyX30e0trc4lOXmDDaM7FzSOIQF8oanUQLVNI3WhB74ImyolKpakWmLNp+k0z7kmC/EXIDJCsp3+SitsIwLgCSSI1l1iRJhwWuSMEPh9KnyIPDQXZDoKOVIikJfF5HJMtYunMBR8EylWU4fctXN6cxtkMdzXSnY3euPqZtsc1SIthppbFHQ9bepdGtZS6VXKgY5jE7V1FEPTOhShQs+Ocj3oE+KmJNAVFPMsubDjossrKTX08AkpEXWbuTKiRMrRHpK7u5Hf1uu+8dXVls17XJt7ZEo6elx6BoYbDZR01HKEf3JCGccuaHtBpEJ6QnoFmtK6AP5sVZpnBSwOVqO58UCbXpZ7ihYv4Eegs55ISjlOvHTg/2+2/n7HMd9CIrXYm1sRclHe+4PVLvRtdMapNu9MASf1SZCZYwRJTgLKT8DtZUKbQU6qS4xObW3OfkCI6xvrO7sPe93ufcJeZOymzdBsudQ9FkRmSj64SyUltFQ3xNTSRqPYCU/mMoncxnN9bm8i2xkM+t1eH38r3W47jger/c3N9ZWV6N5gMzVYYZcmjVs0coGdZNlwdF5ECVBxOuJ0YEJf49RQKmu5ia+ppEFYoQ6XH7bCJ0+ePqbXk42tzf5g0Bv02p0OkiZk76DGyKj7hN0U3kgBEB0BfrHr0myYZ8g3qQs931rmMEB1vKUyjGgPqkYqBW9HghK2ok63+/ybb776+qutB1vdXjdeaUcyOAUjT9+eTnw62NKBRNqHkAvzhnoRYBoPN9xzpY0WVylLhYeirR9qjNIfWbiHWB7HgNoBJpTjK93O9vbD777/9vvvv2vFAbUW56WYlxcUO0DjvlsO8VPA5j43VazA/NlnnwHk2uoa9/pz3sotpLA1SrfDCMkpN9097u8jQ9EWGKictkmWQu2IxR53XbiNa1pRELdQjpK/VPwDB+J+CusUKLW+P22TGSPoGNpUQkmDd+7+04FSUcpM2tDNsxbUTLVQVSc9yiFiO8ONG+I82AI4nrjdeYPBIKDSF7bPvFjnEHjQVxzGjKfv0cilEgIHP3r0CI7dJE84AWzawB8OIYgh6tzD38bD4WSGBA4QrdQeOlBIzzw/JFnQLq4umfZBWu12DBJA4OatBM+oeQYhCZHz7hV2vR/uoZ7BQpm+aD+QfouRZtD2eDwG7POz0+M3v5yc0P7ueHw5vZxSG4F+uJAWWrlS8l4CAuy+rTAUmNtnmuC2smq2XOe/6HFLf19xH0zeFG1sBV4rakkzh9rSaZJ+/dXp25Nff/314PDw6OiI7OB8OByNqlniSY9Z8z6ERWgzq4P+5sYGZ+Pwc73kN0n2VnX7nyRoX20hNI3XZpumkUUUBZ1OHLdbCEs7u7swgcvLy7Ozs6Ojw+Pjk5OTU6IA+plOiWxka/PBsy+//OKLv62urUrhLXtqVIDKNuc7XetPD1tKt6aYl9+AUTHh5q44R44YFpqoFQ76AzEHmADcfn9/f29v79Wrl4eHxyfHJ+XFeDBYRax+/vz5s2fPgjDS0reydQ+Zt3spGASc2S/Drj7BrxAXp1j4VYC7lrHTRyyXfoDnyvnvQ7gNntN+8+XlxWh0dkYWDxbo9fqff/5k99GjrQfbGnW4lFlWfjDheINV8Ra4uo3W1B/px5dUdM33hWWDVtfUzHuuFxdjfl3AE3Z3H6FmM1TGKu+d8l8v+/gHhv3pDu39KY+/YP8F+//++K8AAwBywzul5g5THAAAAABJRU5ErkJggg==;" vertex="1" parent="1">
          <mxGeometry x="244" y="1390" width="82" height="49" as="geometry" />
        </mxCell>
        <mxCell id="UnUnKvQV5A7Vc4DDt37c-113" value="" style="shape=image;verticalLabelPosition=bottom;labelBackgroundColor=#ffffff;verticalAlign=top;aspect=fixed;imageAspect=0;image=data:image/png,iVBORw0KGgoAAAANSUhEUgAAAEgAAAAxCAIAAAD2ongZAAAAGXRFWHRTb2Z0d2FyZQBBZG9iZSBJbWFnZVJlYWR5ccllPAAAAyZpVFh0WE1MOmNvbS5hZG9iZS54bXAAAAAAADw/eHBhY2tldCBiZWdpbj0i77u/IiBpZD0iVzVNME1wQ2VoaUh6cmVTek5UY3prYzlkIj8+IDx4OnhtcG1ldGEgeG1sbnM6eD0iYWRvYmU6bnM6bWV0YS8iIHg6eG1wdGs9IkFkb2JlIFhNUCBDb3JlIDUuNi1jMTQ1IDc5LjE2MzQ5OSwgMjAxOC8wOC8xMy0xNjo0MDoyMiAgICAgICAgIj4gPHJkZjpSREYgeG1sbnM6cmRmPSJodHRwOi8vd3d3LnczLm9yZy8xOTk5LzAyLzIyLXJkZi1zeW50YXgtbnMjIj4gPHJkZjpEZXNjcmlwdGlvbiByZGY6YWJvdXQ9IiIgeG1sbnM6eG1wPSJodHRwOi8vbnMuYWRvYmUuY29tL3hhcC8xLjAvIiB4bWxuczp4bXBNTT0iaHR0cDovL25zLmFkb2JlLmNvbS94YXAvMS4wL21tLyIgeG1sbnM6c3RSZWY9Imh0dHA6Ly9ucy5hZG9iZS5jb20veGFwLzEuMC9zVHlwZS9SZXNvdXJjZVJlZiMiIHhtcDpDcmVhdG9yVG9vbD0iQWRvYmUgUGhvdG9zaG9wIENDIDIwMTkgKFdpbmRvd3MpIiB4bXBNTTpJbnN0YW5jZUlEPSJ4bXAuaWlkOjhGMTA1MzE1NTAyMzExRUNCQTk2QUZGOEQ5MDUyRjIwIiB4bXBNTTpEb2N1bWVudElEPSJ4bXAuZGlkOjhGMTA1MzE2NTAyMzExRUNCQTk2QUZGOEQ5MDUyRjIwIj4gPHhtcE1NOkRlcml2ZWRGcm9tIHN0UmVmOmluc3RhbmNlSUQ9InhtcC5paWQ6OEYxMDUzMTM1MDIzMTFFQ0JBOTZBRkY4RDkwNTJGMjAiIHN0UmVmOmRvY3VtZW50SUQ9InhtcC5kaWQ6OEYxMDUzMTQ1MDIzMTFFQ0JBOTZBRkY4RDkwNTJGMjAiLz4gPC9yZGY6RGVzY3JpcHRpb24+IDwvcmRmOlJERj4gPC94OnhtcG1ldGE+IDw/eHBhY2tldCBlbmQ9InIiPz4sFRtoAAAK6UlEQVR42uxaV28UWRauW7GjQxsbr42RgLFEGOGHhRfEC0g88G/5A4gXpFkJEYSMCF4YDM7G7dS5K+x3zqm6vm6bxsbNSov29kxNubr61vlO+E6oUUmSWL/jsq3fdP22wNyT3AR3VUrJUf7EiuPY5qXvEa/G9ew84euWXDykzuxX2E8pOnccR38rzzr2J4qXDh+R59ilTh5j5p3H7ih4oiiCTFEUhqGcRD0iavlIK47jea7ruFga7dFl7tDntlNbrAdbDyqRHioOgaYLOCGOGpKgVdkydxBsAgkWE4kFJb7Bt7io79Rq1Y4zSGA9W8fpIut0Ol0+dnDsdrs9viSim/Jp0+EnGjau+L4f5HKei9tdcdFjsfX3w9O5onYJsQNOut1Ovd4gn2PjyJKvgERULnEo8mnpzUDVv2WzJ3IzjOZ5HkC6hqOaomovGIzFsrCOAAV7N5utWq0mAmm5nWxBmhQYHYkmcLQMUeIInxj2FSOLUiKOTlk49yIvFwRiSVMpQl1nBdbj1nhgp00u12q1cMS3Wsdy5D8dYQfT1CyKKIiuJw6TjesAAn4opgNCOCeuy87yw5zhzAOme+3T7DTkNng8ToMgECulwCQ4Uu5OWTsB72MHpTQ8bKMzAUC6Ll3kOy2v29Ug5XGgoo6yJeTwlQ7a/iBPzYo6HqBRbF0qlVJGc+gjcS73RrzkfkXfkzAQHhcPJSjHBjjoRH6bBEE3W2I0eVan2wlUYGaLwbBilqAoukhQpUyapuDBDXHEsDiJW0IhhIjCwbHZjErM30OYaU5jv03zvsNbZ4GHG/Dg0AmtjtU/450OmMkZlKMSAgbHywRSmgwyWVWmWOEOS/KVtjnrW1OcMuNHmwL277J/EjkxieLRooiTADsp3eMB7Xab3CMKU+lTLdvCdUx6tnbFo65y+EFHH3oANYs9OkZRnJUykegJUS0hPRhXxL4ARrvbqgfSYdumfkXOk8VSSgxp9agyGNZhnImuKmFUSC5bKaINm7J/FFJySGIv9mTDAeQx8Z96vY4dC8UiV3dOyHK7RFZJyCVVFB8kTU1r8icUrDPysdWwzvu4HRuL62ZGpmfFLcoE2C2fy8NioBPt3j8PDKml1W6D3+EGvkcKw4PE94SaQWw6Y4qsUijosthkwp50pM+zSFYSIAJDWArRBbU2Gg3K1IEPG5pJ8ueBwRNazaZ4eS6Xo4IwCl3ylrTUkBzdQ8S4IkWJZD58pCLpU+bpwgWq5HSS2gRRsLu7u7Ozg63y+Tx4q1goDgAYLNFsNhcXF7EpFFkul4vFoggHkGZn1ZM3BRtpxFK+73HAOGYBrRlFV/cZzUh0kcsB0tu3b1++fDk0NHT+/HmHb6036oFPBfPZyEMp6OzLly942v7+/pUrVwqFAnQpfReL5eo4EY8y+8KsH/FMewowzRk9TMCmI2cGqq9fv75+/fpff/11488/z507J4Vbc78GeGcFhpQCzW1ubi4tLcFEd+7cuX379tT0dLlUQgmuRRdxYVKIq71ITGHytVkrazrRxbsmGxSia2trb968efr0KXS6vbMDA1UqFcQYdFQul5D8zp6gLegJ0QX9zb+ZhyiI46tXr168eHF0dBTXdSF/dAqgG0p9/WivKVckIBFdaBoQThsbG+/fv5+fn3/x4gVCYGZm5sKFC3BFP1WlM4AYwxoZGbl+/To0t/Vt68mTJ69evfpntsbHx8tDQ/kcfD7Aw6ACsy+MjBJMo/peF4w7q9Xt5eXl58+fAw9QbVW3ckHu7t27Dx8+hCqnp6exj3QACNqzuiLUUyqXEFo3b978srj4YWEBCLE7XGVhYWFycnJsbAzeDz9BTYzwg4K5R/QcXXARTlCFFaUESa6JHRC6NV57e3tygj0RVB8//ntpaRlWmf1j9tq1a7du3bpx4waeAu+Q/MEkZA+sg/7w4cOzZ88ePXr0+PFjiCL9H9xjamrq8uXLly5dgrcAJ0CCwQASckh7psRL2XoyQUAIYQe4HOyD0P38+fPKyvL6+gaAra6uQvTh4eEHDx7cv3//3r172BMbnrCuPwUwKqZiNIQuRPn27RuwwU8+84J2cQMSdzlbMFixSJBgN0ro8BjmMU7rZCVAwoY4IoWQxeq1FnfibV7YYXxifOofUwjgubm52dnZmYszJSp3/KxpQq5PS/CzAqP+P459lg8LYD59+vTu3TvEANLL1tYWuASCdnjpvCSlKvkksPE5VdJUxdCdTJ6WKAULiTFHYRr8AYefm0M4ARIiCnYTktBFjBRT5qTg54GxuIkQEbZrNhu1Wn17exvW2+C1vr6+srKyurqC0N/d263X6sApYwyTGKQE82FN30coAgzkht9OTEzAn3GCP8WHK7xgvYAHHuLAZl/Tv4I5KTCDoGM9Fe52o3an1Wg2qlvVzY1NBMba+tp2tQp3RV3X4tWNwoRJnLgxDD2XRmv5An2AqjwENh2eIGTjlcoYrkBzsCZcFEELsMI+UI5kApFB2BVX+jdmPzNXlMYJxXCcuH7kVsaGi6X81PRkp9PW9W6SFfNMgZGKYjuh4gMMDctT2rPTDzwQKwyj6vb2339/XF3f2KpWwe+T5yfYVhE6Fls5CCoZV2bdRtR/KnzSDtpM1tkRynNyQYDQ48oYke/LoEIUDHr3KLjI/RDpTpTgv7brCXi5jU5AJ0nSaDQ3NzaQS3b39js825ORHTdxiaW0DOlceWAJ+jullu0EuSiRiU0kdAciaTaakpeLtArIgQ7NB9ICEpDgbLitza0Q5wMX3ru6tgbqB4iRsTHwje060k1Lx3m4uVYD66CPnxfQk9IKPQhyCGhQPISGlDiCxB3XkT4YXwUuXNDDvzaHKBYgATysjd9CKXBQVNhg/4gzHkzvUha2fth6DR6Y0pMppaiFCPw8R4zOXTCUnLge6n/gImAwZWC8rCgWCkGxEHa6QA/iWVtf36xuUz5ota1cwM26ffI56WCAkW/ESTqbSF+QKJR2nushI4HQ5TqlMURLyOnVSktHn1iEOi6fqhOqv8qdLgqz3b29VmsVNof1hlwHwHg6rok+MedCA5vdH8sr5tsG3Y9QGHguMwT9o+jdqUOQLCIEyMpRxILDjAgneKbvIyLhlvitFCilMJQgM2YHSvLhrwVG00XXTZROApkiiTBdRXPfuN0GVTRgHb9QpvwjKRs/5CoZ2JTDZWQYgdqxGzIyAhU7QynSY2djy4OezRiV/zpXzPp4SVumDUUO6L5er3WVHSiXWkNlAxvoFGxDb1+AiibDpBPcj/gcHR1BdkYJAl/lmbk69r3RgGf3R1mRpsLWwYvp9PESdVzWpC9lEjvnNEDrCfca1LPpiiemkbd0zbAVepMwscYqFepfaaAv5U5aIelX1QOb3X/vfzkgupCRrRHWOrihddR7NCmI4rwX0GjEpnByOG2nwpGr0eQVooBvYFIvyElzoBwne20Q60HYf4kVtXewfVJFwrEUv5zg5qIAFIgtN4G+PTtzxXRcJSpg4qP3FlRuebliQTzZIWdGWXgwZtWN+Q/fRJ8VWGyhCNRc71jJocfLpIDsE5Mz4Q4qxBKimzT0Y351llAdeTCHQ4OTxD1vnH/4OnLAwOxsCs+5Rh3M5BXbjQBTvatEegowZfUIGhtlKHIxwQefqiiT28wlpyoeklPyRc9Lk++o8+B6Io/J3kX0EU7p90pHrv/ykkr1aWQO36cOfavUKYD1Oz8Fsf2e6//A/tfWfwQYALSC7DYUPWYVAAAAAElFTkSuQmCC;" vertex="1" parent="1">
          <mxGeometry x="340.92" y="1384.5" width="88.16" height="60" as="geometry" />
        </mxCell>
        <mxCell id="UnUnKvQV5A7Vc4DDt37c-114" value="" style="shape=image;verticalLabelPosition=bottom;labelBackgroundColor=#ffffff;verticalAlign=top;aspect=fixed;imageAspect=0;image=data:image/png,iVBORw0KGgoAAAANSUhEUgAAAFsAAAAxCAIAAAA6O0LyAAAAGXRFWHRTb2Z0d2FyZQBBZG9iZSBJbWFnZVJlYWR5ccllPAAAAyZpVFh0WE1MOmNvbS5hZG9iZS54bXAAAAAAADw/eHBhY2tldCBiZWdpbj0i77u/IiBpZD0iVzVNME1wQ2VoaUh6cmVTek5UY3prYzlkIj8+IDx4OnhtcG1ldGEgeG1sbnM6eD0iYWRvYmU6bnM6bWV0YS8iIHg6eG1wdGs9IkFkb2JlIFhNUCBDb3JlIDUuNi1jMTQ1IDc5LjE2MzQ5OSwgMjAxOC8wOC8xMy0xNjo0MDoyMiAgICAgICAgIj4gPHJkZjpSREYgeG1sbnM6cmRmPSJodHRwOi8vd3d3LnczLm9yZy8xOTk5LzAyLzIyLXJkZi1zeW50YXgtbnMjIj4gPHJkZjpEZXNjcmlwdGlvbiByZGY6YWJvdXQ9IiIgeG1sbnM6eG1wPSJodHRwOi8vbnMuYWRvYmUuY29tL3hhcC8xLjAvIiB4bWxuczp4bXBNTT0iaHR0cDovL25zLmFkb2JlLmNvbS94YXAvMS4wL21tLyIgeG1sbnM6c3RSZWY9Imh0dHA6Ly9ucy5hZG9iZS5jb20veGFwLzEuMC9zVHlwZS9SZXNvdXJjZVJlZiMiIHhtcDpDcmVhdG9yVG9vbD0iQWRvYmUgUGhvdG9zaG9wIENDIDIwMTkgKFdpbmRvd3MpIiB4bXBNTTpJbnN0YW5jZUlEPSJ4bXAuaWlkOjhGMTYzMzhENTAyMzExRUNCQTk2QUZGOEQ5MDUyRjIwIiB4bXBNTTpEb2N1bWVudElEPSJ4bXAuZGlkOjhGMTYzMzhFNTAyMzExRUNCQTk2QUZGOEQ5MDUyRjIwIj4gPHhtcE1NOkRlcml2ZWRGcm9tIHN0UmVmOmluc3RhbmNlSUQ9InhtcC5paWQ6OEYxNjMzOEI1MDIzMTFFQ0JBOTZBRkY4RDkwNTJGMjAiIHN0UmVmOmRvY3VtZW50SUQ9InhtcC5kaWQ6OEYxNjMzOEM1MDIzMTFFQ0JBOTZBRkY4RDkwNTJGMjAiLz4gPC9yZGY6RGVzY3JpcHRpb24+IDwvcmRmOlJERj4gPC94OnhtcG1ldGE+IDw/eHBhY2tldCBlbmQ9InIiPz7795a4AAAOTElEQVR42uxaaXcUxxXt2nqZTSO0yxbEJE78JR+Mj3+Df3Dy1eTEcdhssOMTENg4wQ4gLKFlpJleqqqrcl+1NAwICUmQnJwTtcTQ091Ty6377ruvRsx7H50fEwc/h+AckTcc8gyfOSrOGPt/ReQooIyxVaV3dnasNUQ/zhljzevrD9yJWICSnmvwHF/cvxBgPrjCX4b+4D/Gxq88HEct20nW7B0iEgGRjY3n9++vDod7GJJSsQwHhijCgRO8FQdHg9crR3N9H7FDmDYzpyvhJyAY7uN/AQgZOkG/4ckXOYOdhr1nQWSy/abXosx3B7v36FjFv9FoiEE0kx9PFVeat+OL4yuHEZnEYvzwJFJjDk5ChotTU1OXL19eWFiYmZlpBjim0n8pahp08lH+5MmTzz///Isvvnjw4EFRFLjYzPYlGT94O55S8wwLMAQ8wuq/NE22j9HBrYYg9HHGJ5tqWl5ZWfnss8+uXLkCRDC2sGDsVBr3tojsDfc2n2/evnPn1lc3b9++8/TpM1xMkuSNCc658OIwGY94awCYgIvm3mRCHlg/yY6JBZnUMWoOi9HtdjEAQJOmqVLqIHjYu0dkHJfN0PFWa72xvnH/wf2//PXLq1evrv+yXuZlHMs4jvenO3G88nYClOa6e7NT4K9pavLcGDMajXCCqPnkk09m5+bCSPwLzE6Ay9k5gr5//PHH27dv//mLP//ww8PtzS3uHOCYWMbXh8wrsBya9jEWyR1+ZowIrkG5cLK+vn7//v1r1659+umnU73efyT7Tjr95hwp9vHjx19//fW169duXL+B2NHGxlwqJZpnnDvhgvMj7r52McVRMchDaAkR1XU9HA4fPXp08+bN+fn5ixdX4jhpkDph4MgzZVl99+7dmzdvXb9+7eHDh3lRIMwTpQ6m56K3Ppx7xU6wyag55oAM43VzC9J2+6OPPvrww9/Oz891Op13yREfDqwA4HeuXl/fePz4yfXrN27duvX9D99vb20HdaRcER4Gi3kAxZ8SAnds1PiX0ZnkoHuFawClLMq1p2uInYsXL1258nGr1Rqn57dFpIFjPOjRKF9dXb169U/ffPMNRARKBqYqwRwJ/URGZhgWG4dYmO1/qYAKgDKsXFUZOCOw4/333wNNYNveoY6AHS4vRmtPn66u3rtz5w7gePZsrTJawCU0fAYgPKR+R0MKnHeTzrpJK29RWzZpqXFl0Qk2MPCgf/bsl7t3/766+nvYtpWV9yEo7wCRhmvW+p3tbbDjD3/44+rq/ceP/4U8n4YOgojitw6AEC7AACHkvTiQA9d46hOsbcP5hlyHpeQU5TvVCEpsbW2jwvruu+8gscjH7wCRsBQepcrTp0+/+uqrb7/9FpGyt7eLpptc4I+cZ7OS7uXcwQ+MzGu1M+CJlfXHSXPg2huRCk2ERuCY7t27Ozc398EHHywuLp5EYo9DhJTUmbW1NcD85ZdfounBYDdY0jhQg9TDM4/Zes8O0iOjW/sR1GQHhIxrarSGCE0ENVyYpENjW/0kkCfYx2nW5rWiiS6gdPBKMzOzH39M+vq2iJRlvr09ADVQraytPQMTL1yYbkS+dvipMXhr6wYdPz4CdSiUoD9hduLFeBvv8Kp9PZReQr56gcQhONiLq+zYSAzZYPTzzz/fuHED1n5paemNGedIRHargYmsbPPNweaPDx9Wo1JGEhg7G1VVRWRQkeeRUDLJkkjCkfhSawwQxlnxGDXJcDAs80JEKhFxmmS2yqvRLoCyda2tJqS4SBCAsTLWQqdLXQWqMEI6hJZxuF4laQZW6srUzpqwFGhECsW44nkKTERas1hHvBhsb5hR0UYVIaMU+Q6Y8bpy0T9+2PzHo3tPNjdcNn3pV8vzM9PZGRAhq+NpHVA4TV+Y3nbbdVXvU4DR0njak2DAAhrKRFCJEDsM6DQyG8PDYFRhu0dGiqs47lpona1VHTdFrZKKARhkccNFTImLto6wthSz1hhbGgWNVFzW0ngbJWTABFqXEklfCZ5EtsYaAT340u78TKJ4FyY18qI2YDHAr5wtHTdRXBd7649/Wpjpsn4/EuzUiCQy9ug69vMzs8vLy6Yyu27PU9R7zL/JKBxDkignPAMnJFIx5RemwA9KLtwiGtAznmNO+k6StWVPV7D7FutMpb8UmD0WHORKaou1b3ZI4hTrz4uirHRVGk2ZDOg4NOViFeNTuAt/ETMVG1kX+W5eMWbacbRyaWlxfqafdbipTT4qy72iyEurdyu7U7h6uPlo9W+XlxfYwntRJs6gI/t5Acl8eWn5l2frg220bGjFOUk5fmuHwGJRxSnneoYZWO8EXBvJnQDjTV1LJhBuqq5sJbWRiDhcRLtccOWxzkguHssMkMj0CqlAOqy787UrnTcCUuDpnWI+SeNur0u04gzhFiNcClYJq5gCJVrt6MOVhd9e/tV0u4eCIqp0bUuEJzp7vpv/c20z68xOxSyTTBIFT4+Ij/ZlEohAkB48+D4AUdMuD+eWBo0MUdMTRBp0wDTX2lnyJpgdA3OcF86COkxYL52VGjBBCmi+YBBDJMiwHdRgxGrQq6aG6AmnbUVNQQhdzZxJJAN3ZqYIEegMHEDCRCac5qmUiec+bUcXF2c+vLQMRFJw12KVXERjEGtbA6n+yTjwbGUKrtJGkTo1Ii7kD6jA1FR/+b3lfr+fJikWUxFfE+54BX0EExKR9VqqpXjCK2eACOQQq4wyxyMOoKIWMCL3kAqnPK1dDCkpyxIiYawB86EIFhqKR40VVgAIEVEoOWNJrxCJzPLIx6nsdtv9XgfN5qMRpQxOg8+yNOsveTYScd3ptIWQ0GAqskIQh403Ejl02p3uLC4tt2DnyypKstMjAiEIe1cAFoZvut/PsgyZjHZ3sbI12F2DNSKRKlFpK1XtuCVgMyhBNGUVwVGZcgQ1AHltKrKW6giJwZnBzm6e52VVZrGMs0RYaaoKADaaHRI2lwgLSuNek+NCgIkUiyH4MC92tp9DjpHRWj7uddLpTsdDlgGsSHLtcj1SLkqC+yGLI/nmbj7Sfq49tbzyQdbuHRMyxyESNvlpYw+5ZmZmBhyBwwEiVP+C5OEBJUlEiUwh6cadVCUxZtPsniKpVHkx2Nod7g2rqEzTVqfdy1IQra6BF4+0r9NuZ6rXJc0oymZ/OVMJKCYxESEdpQrkZY0uRDAtAHdne+unn/6FcySvluouLsy15qcU8m3s9izb2Cv0sIQzkwhEZyjwpRgUZlBEcXd26dLvkN88lOgMiNC0abuXSgR4G+DS6XaeP3+O6zREEBJMwaiJIGBPu5O0MGeVxRFtJOOD0kBbbeywXipSSvaybq83jUfRQlkiYjwCChh1Oj3MnDNltEGrrSQFLgh2hFPAAsFhuHRMJjA/GBSUGZwLtpcnsax5rBmlM8RQWbOhdrqyvkIAOtLvsHVd4wHS4Y7IMgrnY13akYgg8KiT4CwkF50uHcAATspEBhaMcylIGpKWbCUAhsUKRHEx1Ed6wkpY7l0duyTxBiNLZTuBmUtaaDlGqMRlpkwSZ2ncgoI45WMJ1ZNJmqI7JWSsVIkUXGghjBCOS2AtLaQSOs7CsAWaacs0s7jBSTNg+wrjDJihEWw1Ao2+LopiuJeExthC7Pko4uxMnjVRMWfN3gyZ8V6vNzcz2+/2Bo7AciShmvxCUe0NR2JTyZicKbjuyVBK6AOkz+k63x0ZJGUfDcxeVdUQZqTana2dIs+1tqNhyT0SkNVI3dox2sSQUGHYeFMzZGQEkIxTrI2I0TgZ3NZUf2FlBc+lIl2cXZya6qSJ6GRxpwu8Y4V4BMEjkmaBzqRE13idnupmSbsu0VzEVXQ2HSGV86GQhElYWlwa/nqY7+U7OwMgUXuyhNYbB6VVZFJpHwCksB7pFbkwbJxIuPGoRJZFilVOs2Koi4hyVJ4jL1Hk1dqN4ByADbhuapgvwIET7WHvgFOFrtAcJkGBgm7hiEXS6U2TJRYSBIPA66KIOphwKxZEHmqDiOAVQpEz6BBAne5PdVutpiqG92XqDFEDF0DfGJFGttP2by7/pt/pX5i+UI5KV9PEdW3KKof9gHLjHC6RTLeuYBO9ASbMATBjSgkb7ZBiS2FzjimWKE8giixRzZ6oqSyMJT5N1bKivZjRMIeRI5+iTVlWzZdb2tJ3OlmcBNIL4kBlB5sbQwAX5YlaWpxLKWyZqpmnMksw+FKgs1cM8ak5JMtuhsDG0D3ZkdO7eNZsnEYkQ6QKbTW/MA/6IYNQ/R5hmpiFBuKgiUXwgjJkvyiWIktP1NS304WBH4HUjiK9x2DKUbuhsiHP3qgVUINaWIp+D5MOpg+HQxgWOCILRFBVhtpah4wTApm8EuUrY2NdwPNSsQmzlCadVgtVZYxYiy23uC6ajyBtz83OwM4ATMffsCV/dKXHRLP3QpUGzl3U7rTwG42/IQsNezKyEcbgwo39PSTA6BizRFEKa0fGYhjpISs97SLUDRB40Rq/dFBVZwkmAJujpClKgKwpnvBARd7fmBBcKIvohLbBtWa7u9xXouVRi0L4IXatONMqjbSj7EtJrYyTUavdmp2dbTZHOFVa7/bbCfbKXpWnAudg28s3t5kPsR8qQrevRhCAjKVhGzLUB2SKCQEX6nvEviNU6S7ye01qjjvI0JZUMjznqERwDZpU1qJiLsAgzaRpdWW7CzNEVSArHQMrMSZtoP2d+aV2f67duwBtjt7+ryX4GAF+aLNvP6jCPA7v9FHpRxsG4wWRdCailxj2ai/jV/7aMTRGyVG41sH1RxXQ1Z5XnqOiqyJYstpJywRcTB3VoJbW6ZRO2v241WZSHc+O/bGd/2XeSfcvzxE5P84ROUfkHJFzRM4ROUfkHJFzRM4R+R89/i3AAKjlfGG52yuPAAAAAElFTkSuQmCC;" vertex="1" parent="1">
          <mxGeometry x="450" y="1378.02" width="135.5" height="72.96" as="geometry" />
        </mxCell>
        <mxCell id="UnUnKvQV5A7Vc4DDt37c-115" value="" style="shape=image;verticalLabelPosition=bottom;labelBackgroundColor=#ffffff;verticalAlign=top;aspect=fixed;imageAspect=0;image=data:image/png,iVBORw0KGgoAAAANSUhEUgAAAE8AAAAxCAIAAAAUfmNgAAAAGXRFWHRTb2Z0d2FyZQBBZG9iZSBJbWFnZVJlYWR5ccllPAAAAyZpVFh0WE1MOmNvbS5hZG9iZS54bXAAAAAAADw/eHBhY2tldCBiZWdpbj0i77u/IiBpZD0iVzVNME1wQ2VoaUh6cmVTek5UY3prYzlkIj8+IDx4OnhtcG1ldGEgeG1sbnM6eD0iYWRvYmU6bnM6bWV0YS8iIHg6eG1wdGs9IkFkb2JlIFhNUCBDb3JlIDUuNi1jMTQ1IDc5LjE2MzQ5OSwgMjAxOC8wOC8xMy0xNjo0MDoyMiAgICAgICAgIj4gPHJkZjpSREYgeG1sbnM6cmRmPSJodHRwOi8vd3d3LnczLm9yZy8xOTk5LzAyLzIyLXJkZi1zeW50YXgtbnMjIj4gPHJkZjpEZXNjcmlwdGlvbiByZGY6YWJvdXQ9IiIgeG1sbnM6eG1wPSJodHRwOi8vbnMuYWRvYmUuY29tL3hhcC8xLjAvIiB4bWxuczp4bXBNTT0iaHR0cDovL25zLmFkb2JlLmNvbS94YXAvMS4wL21tLyIgeG1sbnM6c3RSZWY9Imh0dHA6Ly9ucy5hZG9iZS5jb20veGFwLzEuMC9zVHlwZS9SZXNvdXJjZVJlZiMiIHhtcDpDcmVhdG9yVG9vbD0iQWRvYmUgUGhvdG9zaG9wIENDIDIwMTkgKFdpbmRvd3MpIiB4bXBNTTpJbnN0YW5jZUlEPSJ4bXAuaWlkOjhGMTYzMzk1NTAyMzExRUNCQTk2QUZGOEQ5MDUyRjIwIiB4bXBNTTpEb2N1bWVudElEPSJ4bXAuZGlkOjhGMUIxMjJFNTAyMzExRUNCQTk2QUZGOEQ5MDUyRjIwIj4gPHhtcE1NOkRlcml2ZWRGcm9tIHN0UmVmOmluc3RhbmNlSUQ9InhtcC5paWQ6OEYxNjMzOTM1MDIzMTFFQ0JBOTZBRkY4RDkwNTJGMjAiIHN0UmVmOmRvY3VtZW50SUQ9InhtcC5kaWQ6OEYxNjMzOTQ1MDIzMTFFQ0JBOTZBRkY4RDkwNTJGMjAiLz4gPC9yZGY6RGVzY3JpcHRpb24+IDwvcmRmOlJERj4gPC94OnhtcG1ldGE+IDw/eHBhY2tldCBlbmQ9InIiPz4T8EwyAAAKxElEQVR42uxaaVMbSRLtu6XWfYOQ1jZg42timbVjPR/82/0H/AscEA4TM+YwiENCjaTurtqXla2yOIYNGCTPxroUlptWq7pfHi9fVsmUUhoPOoQQSZLg4PLM1+9i0j81LMvSx8Y8h/NXvizVEGowOhxIQ4pEKHy32dFUaC3LJJTpscVoNWw+84Am+Kto4ziGJ2P1wpDT8V+/a+phpWjZyfynZZMZbLybluM4DwXYvEckM8hIvYASnrwR5Owj4nj201kfarTfz5PHERgKtmXafAUhJ3PYtn1l8vn6Fj4E0HAYsmNnfXU9/fTJ64ZgqFfsSO+c9myCxLCkmtGmwHZdF8nCmMmChtSWmhfayWQ8HtM/PJyOR41Bp999Im32i1LNKadWSIxYxIkQhNqxHUc6jn3FWHNBGyF8lVfTTLuM9sqfNwf29Cl1xk7PWzPknhJ36nApDEWAiSFjIXB/33dt13YsZ75owcL8BLcQpk7IGy+4kSwuQaU/1btIgZvy+6fwcSQjwzJcQzi+swhOplSybSZMUKh2FNceULT8ztDyOhXju5x+Fg0yy3WTUDlTBdzW9VpequxSWIuoQLNeZTnB5YdrLzF2FHG08xkNmHGymdzp4DOcFxbhBwFbDFWCo+hlWtKYncS6lyi6D1p6JPBE4lyocTodQzWIwSaTWA0xHbOwdSHxPM/3/Ww2GwRBTo38dOBkJpPhdz/jmwaCx0ynitMqYBnWnQj5/mjFRADn4eHhwcHB3t4e3nu93tnZ2WAwGI9HwKtBsvPBa1JIHQI0iW25jgu0gAp4xWKxVCqVy+WSGoVCoVgqlkvpn7CJ73rMiJgHL8UKqeScN1oTDjw6Otre3t7a2vr69StgA+f5+floNIJjdRHWhMS+BdAkijjg2WqIZ3JvkC3kCzyAHE4G+Eq10qg3Gs0G3uvVWqlUwXmKCccQNEGyoEg+Oup9/vz548ePX758+eOP38/O+mEYAiTnKiOZbRLS3FYymuICrKP0kJZlo4sR/IUZzgcDz/Vd10EUZ4JMPpcPCnk4ul6rYzQIewsHmYyHbDedO0vo+6BF3H769OnDhw/7+/vwJ4sbxcg3lFmma9aoxrXA03zOthrKS+WWktwyoSIqlUqr1ep2uk+fPn39+nV7ebler+F2CI25o4UnEck4QBAmgnoCduBMwZG6WmjfUgBrE1xmda2XueQSSJqDxIShyiwSBCYGL4Ajtra3Njc3/7W52e50wGFzR+uowao1IzKRFaX1RtBLBy1nrA5sna6z6nJacqkCCRMka+tkxxR4kVZyHEwOtu+fDk6PT/f290DTzUazXK3WarW5o11eXt7Z2UGAYQAwQRyLkRq66lxvJK6c0amr1IXF5rNJ+6cup8lx1nPYgSrbqeqMx9HJyQmSaH1tbREshZIAekSxhAtQhxDYTMWaaW8uWtdMMHtlWpdxVZQeohpbuQL6XXI7iSaLlbOl0hWfmlN7zRctigSKJO6HZwJL9c/7gIqIYxfpbLwCRrt31ih6jUZXKaJoZbssjSC1VMoMhgNd4zqQIZVq1fczi0ALYwMw4hmKAvmFUkkT2Q5cjQS+ufuf0tishzkToBjZRlKt7QAtQhfVGx+itcSflzjctiGtyoqis1l/EWjxcO12+/379whj5A8kAcxPRD0Zs9xlMcweA0Lq/qNoYlnM5Bowch61lbShS2FZrzVarWWoZ6ixra1P+/u7CBwAxhfQCXGcFHLBSndlY+PpL7+8gtBe0LoUHhTZCw/jWXFMGJSi+97rTQspghDIAZjbnct0RRUa5/1sJh8UgRbqQTlTZIMcwngUTqjnowg3ElQjIRHGuC/yiO+xILRIKcQSCgAc6/setIEUaWdnUgdDLQ6zbmImMIMjHZZQs6FuqlUnJCKUYntlpb3SWWm3T06OEQ3VahXBMjwPYY9ElTSZGCB/KK2lpSUAZhMvCC1cCqgAjOwFhiG4qt8HEvIh+hXb4iaOk5M6AbQEdsIn9cISBDHIplZvNVpNvNAR0HnL8lwPOrlaq05GY6Q8+inkM+ziuHaxXOx0umgeFrrCChVVqZSBttPpAMyp552enSFow3FISBVYLqScpVyZ0Ql50iNhT+2eXylXG7Vma2Wl2VqqVaq+5+JyuBtlFk1guVCKqqPzcACKpjiwDbR/kJDdbhe+XShaJaS8ZrO5vr4OQUfVzzB7xV7vuAcPa7WYFlIjbQMQ5NlMFv9lMtTKVuA+REi1XkRFy3quY0Mqcgq4tuX7Lq6Jk2QyniBFXFLL5aUlGKeNKFj06jlIAu0IZPru7i6O4yjGO2pghFZeJKY51ckqoQVOSZG2t4YJxwbZoFzBYxeLhVwuQDXxwFjoggEWVKSc74EUiM8n4yiOkDvd7j8w4F58/QfsFaAFw0MAJFq205PTYgH9d2XaZqeUyZpBtTh45gT/jykPaQkDCNGkB1k/QBHyPVLahiSK9j317tPqsRT4Ynhxjs53Y2NjdXUVd7xr6/MwaPFAcBs4o1AswCFIy2g0Uinq5XIkhZTeQr2NQ17UGV5E8QQdLWQEqSjVOVim2g1SMQ+jIEtxoe6TiSCq5Y3WxpMnj9++ffvo0aP7sfEDoOXspVWVYpG7v8Gg76j1FzgGn7K4i9V6HAJS0NIFROGIKzZVFu4Ela6EDyE/wvBiqHYhuJ7BXtls5s2bN5ub/3z8+DFu9MN2vZhs0SFU1UBrcnZ6hgSG60BXw3AIQQtuRuaq5mE46J+HF+EF/G/ZuukFSG6e8I5rcCHswbwAE0BIYGbgRMYiWH7kHh8/ExKJ3ZsLAs5XWrgajXnthnNsMh4DMPCMR7QcidsKtSeIY1zG32LHqmWtGFOwITA5ajHo8N419iHRqmBzg0yWGyNkr+eCUl0oIZASr8gBCSGf0I7KbFfAUGECDlqgZSenLTHSeDxxPbder4HFfvz+7XTT1c7mAwi6415vb39fEh7UGA8Y4GGEMVg6iZNIKSrqxyX1OwADeLysxcTD66+85nExDDFxsQTl1EGRu7eceHjfIlZzQQ5okbdfd6lxQUEi5RTHwBNRHSarkIymtRjLsGn/Sii0tIcWRXpLdto5iItwlMvnlpeXUHKePXtm371xnxdaJljkVXelEw7D7e3tnf7OcDgEHxEXUxGVtLymGiOIRhlJ3g5Lt4InkXAEy0wYBCkAtMiL9fW1d7+9W119Qoupf751dqdO6GHQ4kFBmPVmAx4DG0FLIiFD44L7PpkIk39fQft2rLBo5ZVbX0rsiakXYnEyCHIA+erVq5cvX8CIt2wI8D7LotHyQCnqPupyfCoqNgeDARckk7ad+Tcp0nRM9TMD2tch6qJqrGJA/TZldW3t5YsX73779+rqGoTl7VpiEavnt8QzRrvdJjnlefl8ARL6hHbDzqltA0/pbTBQ2XQ9lld50LtXqhW0Gc+fv3j+fGNtbRV6+M9i+H5QHxgt3x7xXKqUc4UCghCYjZ0dCIZYkHhQDbCg36ao36fQXo40/GwmKAetpRZC99dfN9FUwV7GfIYzl0kdB3oARQi+Ojz8dnBwcHTUOzk+7g8GyGqktPqxDKV6Pp+rVKroLoCWtrcajVKpaMxtmA/+W7gr46zfP/z2bW8PlXi/1+upLc8JlCNsgVit1WsoXS0aTWjru+5Q/u3Q/q2GZfw/jZ9of6L9ifZ/b/xHgAEAPCkKUBbTZ3IAAAAASUVORK5CYII=;" vertex="1" parent="1">
          <mxGeometry x="683.01" y="1374.5" width="103.99" height="64.5" as="geometry" />
        </mxCell>
        <mxCell id="UnUnKvQV5A7Vc4DDt37c-117" value="" style="shape=image;verticalLabelPosition=bottom;labelBackgroundColor=#ffffff;verticalAlign=top;aspect=fixed;imageAspect=0;image=data:image/png,iVBORw0KGgoAAAANSUhEUgAAAEUAAAAxCAIAAAADXPOpAAAAGXRFWHRTb2Z0d2FyZQBBZG9iZSBJbWFnZVJlYWR5ccllPAAAAyZpVFh0WE1MOmNvbS5hZG9iZS54bXAAAAAAADw/eHBhY2tldCBiZWdpbj0i77u/IiBpZD0iVzVNME1wQ2VoaUh6cmVTek5UY3prYzlkIj8+IDx4OnhtcG1ldGEgeG1sbnM6eD0iYWRvYmU6bnM6bWV0YS8iIHg6eG1wdGs9IkFkb2JlIFhNUCBDb3JlIDUuNi1jMTQ1IDc5LjE2MzQ5OSwgMjAxOC8wOC8xMy0xNjo0MDoyMiAgICAgICAgIj4gPHJkZjpSREYgeG1sbnM6cmRmPSJodHRwOi8vd3d3LnczLm9yZy8xOTk5LzAyLzIyLXJkZi1zeW50YXgtbnMjIj4gPHJkZjpEZXNjcmlwdGlvbiByZGY6YWJvdXQ9IiIgeG1sbnM6eG1wPSJodHRwOi8vbnMuYWRvYmUuY29tL3hhcC8xLjAvIiB4bWxuczp4bXBNTT0iaHR0cDovL25zLmFkb2JlLmNvbS94YXAvMS4wL21tLyIgeG1sbnM6c3RSZWY9Imh0dHA6Ly9ucy5hZG9iZS5jb20veGFwLzEuMC9zVHlwZS9SZXNvdXJjZVJlZiMiIHhtcDpDcmVhdG9yVG9vbD0iQWRvYmUgUGhvdG9zaG9wIENDIDIwMTkgKFdpbmRvd3MpIiB4bXBNTTpJbnN0YW5jZUlEPSJ4bXAuaWlkOjhGMjJBMzYxNTAyMzExRUNCQTk2QUZGOEQ5MDUyRjIwIiB4bXBNTTpEb2N1bWVudElEPSJ4bXAuZGlkOjhGMjJBMzYyNTAyMzExRUNCQTk2QUZGOEQ5MDUyRjIwIj4gPHhtcE1NOkRlcml2ZWRGcm9tIHN0UmVmOmluc3RhbmNlSUQ9InhtcC5paWQ6OEYyMkEzNUY1MDIzMTFFQ0JBOTZBRkY4RDkwNTJGMjAiIHN0UmVmOmRvY3VtZW50SUQ9InhtcC5kaWQ6OEYyMkEzNjA1MDIzMTFFQ0JBOTZBRkY4RDkwNTJGMjAiLz4gPC9yZGY6RGVzY3JpcHRpb24+IDwvcmRmOlJERj4gPC94OnhtcG1ldGE+IDw/eHBhY2tldCBlbmQ9InIiPz55xy3gAAARzklEQVR42tRa2XYcyXGtzKy9NzQ2iiQwHFE8lnXm0fMf/gp/pD/A32Cfo3NGGpIDklh671pz0b2Z1aA4Q9JsyS9uYjCNRlVWREbEvTciIZxz0W9e//lfb6KIn6tYSOm07q01/FHyS5veOZukEp84Y7qu6/teCKGUKrMc3+M4Ntrhw7Ztsb6UIpKlkwWvd7jDaKzY99bZSIgsy/AhFjHWGccLBpOE8N8Hk8KHFrfjLv/6j3//8beWx9HnXnGscKPlytoYh5WVEs7yjYBLkTRW77b7ao/XztGsKInjJE67PIdjUkqjre5hdGeMxUvGIxGXeI8V0jRNkjRLFX7ivRZXGGu6yMkYmwfLvQ9OfGJS2HXx0cHPvz7vT5bHxkTYRUNzDCxVUlmtJZyJXSzipu4WD/c3N2/fvfsFxhVlWhajPCvKvLDcBtwElxEHizg0TZNm4ySb4A1Cd3FxcXp6Op7MQ6Ba3SGUru8E4ipSuiHcY3i8Gz4RXIhSZO3x/jjbOmtEZIQwSkVlmSBnuraHnQi5FX1Vrf/685//8te/3N1+KPK8HJV5liI+eZJ2ve76DsHk6lLBh/V6a7W0RmJ78ix/8uTJbD6bTKZC4p/Cf9x0EY3K8WQ6G41GWZ4dMm2Ih/3oj0Cwj/YnclpEVgobKSeFyDMYxo2xIcEj0+vq9u7dzc2bh/t7+DIelULJGDusZNt2dd1yV6XM87yp6tvbu3rX6dbESLvxaL++L8pSwvs0y9IU1+C7StPT07NU2mmR5CqHF0zugz/uk/gc709epChOJI2vWNQDYhVJ4ZIMRsQorbadXJydLO7HutnhkzhGcnY9H5tY3Vnj/QF2iCRi2jZxIkZZcXJyMj/hN1T/er0WOlM2d7GLEqecSKRN4wjL44tPHfLt0R8R8CBE/jh/0ixGNAyjERMDsKCzsA6mF0Wq+y6N1XQ6Ojs9gfUxtj2O+67HjWVedh7WUOnAu3E52uV5XVV90yorJmU6nRbTaV5Vrto5IGVk2q5hOhjd1bu0KvPodJbRKHGID5799/WDbD++fmIlLPMauSa5LALlsHkxgSlJmmrftU2eJWenpxmjI4mHFhcks5mvcmAx8CQSyKXddjcZle/f/nJ3e6d1pftCReNRruxJqS2BbY8rdrskS3Tfdn375MkFFnwEMwc8DV554CPiyuP9wcYRMB19ojvcIqnwGGOr3e7u/Yebt7+sFxsgco4SIFKjrCVq/Wx+xpTQPYEReZvmo3yEdfq63qwX2/0GCA4LJ+PJZD7F7U3b7poK25UVKdMA+S0jBNb7QE/ER3+EO7CTO9YfS+6JDuF2EpSIUlAAq3q7Wb198/b1z68XiwcYUGKrBbyBS0mRlsBrvwMkTayQJlmW5ACx1XLx4fbd25ub++UCG6yu4vPLi15bud/dLxYwNS1yfCH6KkmAKqBuD9ue79yn+WYHuj0GD5J8gDlUuelAPtg127vNansDm24Xu23NxwjXtcaiOATgKjadAcglSUK8ivkG6alkAjZ+/vy6My22ZfHwUPfdZr/b7PfgKyB9Vo7xpOnspARSj8ZJmkcxbzn4owZmdQdatY/U+s3+EHupX0AaAGmtkhRVBGJcLzdvXt/c3d6DUgAPBE9Th1SIVQzl0ra6LMspsGI0Bh/BLFB+npZnZ+c66pBdSKLVarOrdovV6uIiLQq4VOJR+WgEzcBMwx0qiXyaSaa5jOyQbx7fsK9OHOtP1+nYb7CEBBFxluaIc13Vy+Xq9eu3i8VdXe+hWgBOqGVrNX4rlSqybDabnczm9omFXanKIgNiFcg9BaiYz69fvEAZ7ps/b+tGv78pJtPx9GQ0HgNHYXyFDYOesNbXjyQYoX4cGdAd9I8k6h2P1ywXIULpoSKxNyhvkMZuX61W6+12W1d7RA/bBVtxqSLCIRIKZLrd7pS8D8IE2w91SuGH8ssSxO30/Ox8tcQK0FKK2RnD7ohuaGIpLuYznUoTLMv74IIl0OK7ZekIVLO/5Bh/EBmilNYBS6DBeiRL0wJROxBG3VX7Cr7kKQIyRVig26AycSXUDa59//49LsO1F+cXSDyUH00AHacxXLq6uloslpvNpiwKKnGjm04nfcdyygtiiTV5nOAuj5HIWeY+dqfvtSdZbu6XQO4LeO3VBlI35qZDxMius01X7/fbzWbZdTW2ssiK+fzk6eUFSgCVkyb0p65BnjUYBTu+Wq9QY3AP6qbV26pbM31MD6oCZiF84N2uaRQUdxLnSG9GxOBhKWPtvO7WMIGxh/RCnvlCCoUtjooP9l747I25cKhJi4ejjrfblYWqiRWS//z87OmzJyBNKjH64+APhAwEXlM32+0aK4H58WPVrnf1EgTl9bqO0FChWhDlLIXwBRqmtBGIZhAX+IYCMsI4XIlCjOgqJSlxWxBrB176djzQHe8IfMoaxMZA27dNV1VdBZYY5en8dHJyOi3GSBLIPcYHSQ107XVbVGkNHdpVbgsWMpGEMZ2vcbimW4RwvwcvLx/uTd/2xhVFGbkelAzdiy/Eh/yAjjCyQO5EukTRGWcC9jJz8DomPpHho72UpUcoU+SHY0+DJo1wqkRWZChxfI4kEigQliny3ZB9gfYS1/dV0/MTYbJUQhJ1jgm5W6+r7aZrqt0moVpWKkFz1SMU4OWIeApUVbTX2ZhiSglCD43RhCdKZCsZrPSb8S1BJpse4WaioTnFzkOJkAMIv1YRo7FfuttWO4Jo7KRGK2r2+xq4YQnf1EcIKAIBMBmXGULaRM12s13cP2x3e0iirkb1kBe6BHqwRqPO/gp9inRZkkRJxDoKdQzXrLbs82GJFgb7iZQpv1mPphmUATts33Mj4RzBQXFniDP9rm422x2CntYx6qqqS5astk2DXg5A2GmPQb7XdtCdBH+ClatxgcZ64LQE4gCtYOT5ADdqAycdKG673UvptQWJiNAUNJsINOIrx0XH4XUaYNH3tvAFu60oq6QEQ6MjiPb1cr1mKx4r1AIgDs9iwlGIAm8N/dKGIbMOqUcp0RsSVAcPsVTmu/RpOR4TMJys6t7sms1mf3u3eLpaQ/WMJDUTHhewmUYAF/zLN0HH4LUJej9iHXgZlQh+YcMIrcgfPKZpNRIKO1bXXbytiE+C6YjuCOHZ73coFbgDgZlmRZQwTHEaayPbXtS4QtcmSnunQKyUvDIGd8HGhzW0YTfujMxcqnybEHlljRoF2HLCpPyoxh7jT7VBUWZKoYTwD9IGCHBSjKZZmYsE/XS97Zf9ss1rEI8UPn4iNEpWU8OSdrXuqbTjXmRaZJlNkrjpkYcEGKsEOp/1rqtbNh1Ffnp+bmXMyEMcCXECBTgeIQoNylJrohvgSGukIRQDSOBLY5Gv6R3r7xmED7mIihMSZr/fg/3JLMg3iH5ExkBnkeMcW00wProF0iGLmROM0HtwQfyKGpfFIHxPDZbhFjQQH7CbdU+G8kk7iABfMtJnnAyGHa3fUIx+UmWDb2HRIsvH48l8Pgdjemd01/XQWIRWgIGRQ+dDh+iSF39+NBMNZsH0Dqk8LIuKVFzcOvSlYCTH58bmMHA0PuODAbGI2ef5keXXXfq8P37rhI+KCIGiwCmKi4uLFy++R3sMZu87WuZ8jeK3MfGCNOi9MSG/8ZuYShX0Bc2pKTXYfbJmAJ1wD1ARee1CbvCyFct4XT/QpfQE52daQ9aIIbLH9AuPXW0IMbdKCjQ2l5eXr169eni4v79/WK0eUME2y0IWQI9amOJLjsb54MD0NI3xK4QIQYDDXkMr0QE2esMOfsBfVBGHL350iaxW/kryhQidqRs2OcTGY9wR/qBIwwJ+yEJuZgon6vzs7A+vXi1Xq/1u/9//w0kGCcZnOkiJoIBS0sQEIASJP5FDuP3TiS3oOyC8/cibCYa09Y0u6gltLVyfTiDBp1BQcFbjlzby01YKbaYDK9KPr+Qx8ek52mWCRxyBkBBjopiczKbX6nqFHmi9vrl5y/gIgLuvYG83rrGef9gNDnsR2mTaECb0bT10HoFwfbUjaFCF6fRkNp3NxuMxEBUqS5N9mCyaZRgmGYiX8aORo+Y7j8BN1WZDb4v3SJXRaHT93fW+2v/y9jUesF6tnA8RnEE1gyVZdRGHJyqhlmG02zYEebfj/L6pW0MNBQUVS1+iSZJNppNnz5///uXLs7OzNE95qiE+Gca7QRP8LwPsL+J12I+Acj6REH0T5On5+fnLly/f/PGPnU8dUlTUBxxhv8lJqkAZgEn9pIZnIaEm2xayhmpIUs/koa4RFzhzcXl5fXX9/fe/n0wmcFHzeEZ8cnDyd4X9laHVF/RbEoe6MB6IkAkylkhCS5Q2AIZnz5798MMPVbX78OEW29/TYlZvOCaKoJc5CvRS3bLPDZTiJ5XsfVFdcMOnp5yMxucX59fX18+uri4vLuI06ZuWSygZ2mpPPn5EG46ArD3aH0mpC8R12GppZUBIR4Y2qIGREMi6q+sr9DHwGWC3Wa+hSgFZgKm2bpCNpteN0bFJ2NKRLqGlG5hm/MYjLfOiAOLDyY5LUjfggs12y+v6DunL05NQW37w6wcSdgiXO7Z+2DNxysv5VxykjJ/sofo9b6AbRYaAYV9cf3f/8LBYLNab5Wq5vH3/4e7urnmLnq2GlShrSYkM+VotH5ZZEdpqNgllUe7Mtmnb7XaXZMvxw9QTgz6/vJifzqFRUX64jsAt5OFkwVfygd+P6eeGrWDi+eaXIpcVniThPXIPPwKIwBXTk5Or58/R0qIZf/fu3c8/v4bdd7d36+XqsYksi95MybKgy7LIv/vu+l/+9K+rJf9Bp4Og2Hpk2Wg8YToOOMQxljdEuGF+zXz5ukT4oj9BHHAWwsNQ8qPnE+IWjzvJNlFaZMW4nIt5TN5MwFof3r2fzGaoJ+QoT748lgdowWr7qoI9o9H4+fX1v/3448PDw+3t7U8//YQshfigmDqd4xF8Oq6nxjfBbnMYIIZmIfapeBxeB7HEtcywGtuUyD1qDXYSfk0Kgq5vfX8aEoOgB2aPseU52AIwkkQmMwZtAuecUAB5znO4LDs9O/vd06dwoCzGMz+MhP+gN9+6ccxMB2TQBTKYFNSdR+DZN/tzsNpSQQ2gCZ42nJMffudJjZCHYkb33308uKY/fnYW2mbBFscipNCV0ELO5w7sQ6Am09nJyTxQsR93p8ADdE5x0BeKowM/TPBfvqtUfn523DzkKy8bDi489ZvBA3/wi9zqenZG6MfqGiBOjc2mB6mY4q3yyADXqj1nWhCBXkIIL6Wt564EXTgnOJAGKhb+4N874H0Kgvfw4XH+PI5TvfISw4TRB8rQH6oQ4YZo0KDeHwJ3XVVVcKaBPCNZUfhYL5RsECzsk6HfWsgEiKbUa9nhFB1pCJrrUgQq+ONHyIM/HAEd3nrBrv5v4sM2dziPt8EfHx7GB86A/YfIeBvxeYx+MyKQBOIKSrk3PMGH9Cks51Fe0bKXQEFq37Rrjik4Q0KtDPFRRuoh16DBVe9PcP5Bf8RBaFABfPQH3/TQSEI12OAYss5LGP7JBHbS+iE4GLUjWljsPBEyTuFhcIN1Q3MVHqJ8AVFQMaLqseGTakBnFh4x0z7+ucg/FR93kE/BFHv4vx9KWd/cWf+3JWAYMG2e1jVIpMfWmwjND5TSkPoKziYBVWh0zCOGhDdyH/gHCTykUYfhFP9E4Vd/GPKVA4YvzUcPOuE350bu0/f24Cf/OAKejEezkzkEK/vzokAIe99/MxvbNrgAD55fXaHVBQDwZDxhpfuNgD7nSIwTRO9WQOlDhgzD+MjrFRWJfyQ+7leTu9/+/Yx4VEhUytjg6bSGP7BzNCoJembADLzYkCMcUj19+uzy8onvyCOemTLfPHwlsRuGJ0oMTnlV6j4SSSSP77d/FSv5K1piQkeKiXcY0gQlISWkdwNaGfNIlIdZbHBYZCQlSgpuOHz6HUj06VOqUWd9fEKls5BChyIC4RxMD4OM4fFUdOKfx7dhS4LiCFn8+LzA3F71AIRROzmuSfkDm1RWl3+FdWA1OBRiAB6itjwAKw/Q9AeXeeQY/DlINRn8ichE6jDB+pyVXz3N///3+psAAwDI0XxsQWxG2AAAAABJRU5ErkJggg==;" vertex="1" parent="1">
          <mxGeometry x="790" y="1375.75" width="89.42" height="63.5" as="geometry" />
        </mxCell>
        <mxCell id="UnUnKvQV5A7Vc4DDt37c-118" value="" style="shape=image;verticalLabelPosition=bottom;labelBackgroundColor=#ffffff;verticalAlign=top;aspect=fixed;imageAspect=0;image=data:image/png,iVBORw0KGgoAAAANSUhEUgAAAEAAAAAtCAIAAACRYfoNAAAAGXRFWHRTb2Z0d2FyZQBBZG9iZSBJbWFnZVJlYWR5ccllPAAAAyZpVFh0WE1MOmNvbS5hZG9iZS54bXAAAAAAADw/eHBhY2tldCBiZWdpbj0i77u/IiBpZD0iVzVNME1wQ2VoaUh6cmVTek5UY3prYzlkIj8+IDx4OnhtcG1ldGEgeG1sbnM6eD0iYWRvYmU6bnM6bWV0YS8iIHg6eG1wdGs9IkFkb2JlIFhNUCBDb3JlIDUuNi1jMTQ1IDc5LjE2MzQ5OSwgMjAxOC8wOC8xMy0xNjo0MDoyMiAgICAgICAgIj4gPHJkZjpSREYgeG1sbnM6cmRmPSJodHRwOi8vd3d3LnczLm9yZy8xOTk5LzAyLzIyLXJkZi1zeW50YXgtbnMjIj4gPHJkZjpEZXNjcmlwdGlvbiByZGY6YWJvdXQ9IiIgeG1sbnM6eG1wPSJodHRwOi8vbnMuYWRvYmUuY29tL3hhcC8xLjAvIiB4bWxuczp4bXBNTT0iaHR0cDovL25zLmFkb2JlLmNvbS94YXAvMS4wL21tLyIgeG1sbnM6c3RSZWY9Imh0dHA6Ly9ucy5hZG9iZS5jb20veGFwLzEuMC9zVHlwZS9SZXNvdXJjZVJlZiMiIHhtcDpDcmVhdG9yVG9vbD0iQWRvYmUgUGhvdG9zaG9wIENDIDIwMTkgKFdpbmRvd3MpIiB4bXBNTTpJbnN0YW5jZUlEPSJ4bXAuaWlkOjhGMkZGQjQ5NTAyMzExRUNCQTk2QUZGOEQ5MDUyRjIwIiB4bXBNTTpEb2N1bWVudElEPSJ4bXAuZGlkOjhGMkZGQjRBNTAyMzExRUNCQTk2QUZGOEQ5MDUyRjIwIj4gPHhtcE1NOkRlcml2ZWRGcm9tIHN0UmVmOmluc3RhbmNlSUQ9InhtcC5paWQ6OEYyRkZCNDc1MDIzMTFFQ0JBOTZBRkY4RDkwNTJGMjAiIHN0UmVmOmRvY3VtZW50SUQ9InhtcC5kaWQ6OEYyRkZCNDg1MDIzMTFFQ0JBOTZBRkY4RDkwNTJGMjAiLz4gPC9yZGY6RGVzY3JpcHRpb24+IDwvcmRmOlJERj4gPC94OnhtcG1ldGE+IDw/eHBhY2tldCBlbmQ9InIiPz7+8t00AAAMbElEQVR42tRZ2XLb5hnFvgMECXATtTpOY9e5yTJN7HQmbqd9neaxOp0+QHyZ26QzzVK7jmOPY4laKYk79q3n+6E0iRvHVmVlHBCkSAoEvvWc8/3gq6riLnMry5JjD/zluAJXK4oKH4qywFbii6oSJUGRZUVRJEkUBOFc55cuz3RYVpxteZlXeZ5lWZFkeZ7SFoYR9jhJ4IyuaY1mo9ttW5ah6/olOlCWsKmsKgQTrzx9KKscb7kSRlZkKQW2pOPoTYY9SbMsL/I8SdIkSSI82ZsgCLHFcVLmuaLIDnMAu+/7hqEZ2DRdkISX6QDMynMYhEeG6FIZZBTVhF4R0yyNE4QUQcUnGI2XBM8Y5uJ/Kf4VRlGMnVzK8BUOxRv8GI4rquI4xpXXtq6+fmWl3x+s4KWnSur5HIBZOOMyWIZBiDdBECwWC1wR2ZckXELVVQM1WlIdlzmzOyNTma3wBKaz6JJdWW0bzKRj8hSPjNVOmufIE50CJ+GqUqx4gZfEQsjDcnq0GAoH0SzNotzQDVd0kZxzOIBTwoDDg8PRaLRcLvf394fDnePjU3hiGrbf8nvdgWVZiqKnCVUyDs6TDKmAD9ipygv2JqMHy1KRMYvRuHUSOSo/TuAEUZB0SRAlURZlWUb3ygIv8xk/Go7nx8sszrq9rqZr53MARu/t7X388cf37t1DrueLxXQ6hfUIMCCiYTfafq/T6XqtNi4mCiIvClTrJWWjyAlTygoNUfFlJXMCAiuIMq/oPM+L9BH4wiPNHPnC0+t3CFjVLcOikBXZfFEqmjidTLx20+HsczgAW4fD4Z07dz755BNk46lDdUV3G+76+tba6rqhO6ZpGaaJEFYFB+s5gsQStsJOCZbDPxH/lFTVQHxVScb3+I7ZzdUVRK2N8suyKIlhOFKKJooyNFGi6PJsNkvi6Hw9gFxqmiZJT3c2wm/bNhpAklVcbP/oQJFOTd1w7EbH7/Y7feQCUeYRe57HU2BRZXBVcbxQ5mWQhNQ2BQszdQRqjfqirNmAyKBkuangp6nptmlqqiaK8vkcgKGWaTZdF1iGeFCxomVLThKkRqMhSjJinFVFkARhHMRJkCVxw7AMWVVkDUVcVwS9oitKimhWZtTtDKRSwquzDT1fsPDjcFQVJQvpwiZKCqiMF3RNxxcIB2WMf2EHQCL9Xu/mzZt4A5hWVQ0tOzoaHR+enJyeBnGQceVK3+uvDtC24KQiTJdxOJ5MRElDebA2TlmIMzIcYS4LnqwgO2AXL0hIsqqqoujIqC+0CF5FsT4EO9oJqQEY85zIWC45XwZw6sHa2l8++qj+OJ5MD/cO/v7Xv915cudovN9ot95979ZiPN1+8M34ZILzS7LY8Y7n84WKDAhilMY1Si6W88lifHx6ZJvW7Q/+fOvtm++8+Q5KJYpjcFeELY7ngOhg9ujxw+He9mQ2TpIYVcQaI1vOF72VXszNNEPYuLLO/2wKfo7IcDIgZQBSSGI0I0r1YHcvWgbhYlmDI3ARsB+lkaXrjmW7gkOX4nkwyWTWBISGcXh4tLe9+6Tv95kDCSkIciBaBIt5MB2PTxbLBQA5R22WrG+4ynSslt/y/JZpmhdiYtRJHIXj2XQSzHTLAGg8uHu3zDmBKLkk1Mw5xDSIFoNup98F5jUM09I0PYyC08kkDBf3H95/8Oi+WEmO7oIuoCPIAVRnAsReLMI5Yh8EczKdq58VwNlrexubG9hbXutiDlSEGShEZJ1L6Qp5DN2COlbLklQCsBDAt1zO0XOr/RXfa4M+0ZNBGEmi2m339g73J5PT3cMnd7/5V8V+E6N6kDVgJZQE6CpD7PMzGYBfypJtWzd/f/O993/3xrU3PM+n9vi/HfhvUaa4KGhB5DQBiKOCIGEC0wJFHMZLNVBlueV5bb8rKUoSxsiMrlmu4zmWczA6ODwZyY/+jbOddXlBIEpaSuAIfMByCBZ2oQKGNz33/Vvv//FPt23LRsdfKAM4O9oazABxqIhMcMY5voRsJ9FO16UnKvh4fPJ4+9vD4xOgzSIIUObgxKPRATzUVOQEX85AY/Vp8UaVmUrjeVnC2YCcYsEh3YXbbEDDNZsug1HxonIa0UGw0UmmbcaA84Sn8meBrLG7tgfBm85nw90djpeA9LXMR+VN5xO0pGlo6BZ0k8yrUITQFlBBDOtpwyXA00CwiimxtudDhTYaDoL23OJ5vgMQUiBgt+k2bCc4HYH0IQlQM+FySeUqqwWXSIpkmEYcRygV4ipSnTnTNiQOFEV0bAs1A3bTdFNXTUg3qAzQtkjCQqxbrSQNwoHKW22vN+ibhvFyBhqYaDtOrwtQ7p1MxqmQIB00pCQp1AEkpaFBYliO46IYUDNodxKeJSkDpg6oO1VZIuaSFEMzFcUgNmPES+pcUfAvRa37StFNY3V9ZXNzo9lsvmD4n+MAzi4I7tpgsLG28fDxY7CUYdsof1g/O52CbjXPcRquZ7fkFBqDAs/VYo3wkGCWQQuHHmq6PnSWIChQQPBWVWXLAs0bfqfd7vidTqfVbtUbrH+R3n0hB5h6FFdX165fu/7Nw0fpt98G04Xl2LqtY5BEzhvdtiapQgqAj7IIYwsJCBhdsHmNtSlJOz7FALkQhBA6FRlbGQyu37jmt328h5IyLROCxTRpGjYMHVl5eTMxz6HB+iuDa9eu3/3q3snJeHt/R9EUS7JVG+Wj9todPimCcApijtMI5IbfSBJf0iCZkQwTaA6oGKlTTUpis2WurXc/vP3ByvoqgPLiSwfPn4ldt7F1ZfPWBzchSqtP+Xkw3388RH+XpjkXJrqsgHpty5I1BUc2W6122x8Od79+8PX+7t5sNkXBI1eYuZBMVVIsy264LloLavmlrH083wFkudvvvfX2W0AKtOj2zjbkKfLt2Ha72XIcx0QkbcNuOG1Ma90uOv6fX3wBYD0aHUFP6qpa1ZqZdp4UqEy9e65Cv+iqBFB58+qWYZvrG+v7e/sQ2IARy9BB9aAemG4apoaaYpuqqTu7uyhooBH63jQsRdTESkGLQ2Qv5wDhAJBfsennF3IAnYAoK7ICxNxYW53OlgKxBDrSMUxdM0xmufRj+BJIaaQFaEug0QRZIHNpnHz2WiAkXrgMkC/8nI36kvjdrMOz7ULrQjDL8+SW6xZVUa8s0IPmlJ88NZsnSS7QvIIZmLhLhpaSJYUm/p+0ZnI63tkBo/PgCBpidQM8QQTIqVAcF3WgnjBhtMg9R6UAf2WlVjgcTb0QHwLMFjRDd4jWbZjCVuVCaHE8A8wEmCGWy+H2EACAHCHkIHiLlucgi1CeKmrSdd1Ot+N5nttqXu7aKBGtojD1RkMDSgmx00RN1lU0kqzIbFkxmkwmY0w0J6cjWogajY6P93cPjg5H7HiQnQpaMHXUp6SpgDhnbWPtt2/egMy+dAeAm4B/0misgKmEGEFDmx/sHmAY2n4yTONsOhlTAsIoDWk5jyaFOIbqwFDDhC74pIzKcDaJoZ6wB8vgeHQ8GAwufXWayUxSO7qObuYwmcZROZ3Oyt09Q902dAuQ4DabqAWn0dhYbfu+B0WEpvnss88+/fQftALACxraRUxwIsh1nitPDiRdhri0UHKX7oCGdm+1Xtu8aqp6y21FcXo0OhF5agwXTdBoQuE2cUQLDjjgEzgEP7Msu//gfn3nANCQAYv4GgaIRuoV2Hrl+9IdgE0bGxsIYRJFnu+hrL/4/EtdtxD0/qDf63W7vS7GdgwulmPqugmcStN0ES6//OrziqO1a1r01UpRqATsqEieAyfGcQwmfQqFL8UB3/ffvHHjyuYWGhhEMZ8vXvvN66A49CQgyLKh3mwgkmGAj5UzShY4KaXbM9Q/FHaBJgS2UAktIjAsLuuvfwyml+IAqhv794sDjLzIGu6ZNyzY4i7VB5kt1KszDLRFnhiNVs2qurueckDgLn8TGG8JP3stni1I/rA8+LN4f8+MdKr/Ic1fwoEz2n4xzSKrGhC44tgyF7sdWLJle64W5zRNi7/QTb5zcgfJVMhs3/OO8iyYJzGXsjmZryQ8Kgmaii3a8wL3KjoA3tAN/erVqx/+4fbh4eFsMi3SrGSoWfcGjiHIMkAG0qvoAKQHmvXtd9/Z3NqajsfTyRTD0Ph0fHpyOptOF/MFhj6My2zFRX0lS4hgh8d4DNEOM8M+3awhxRSwtWCmMoC7vX7f8/2nur/iXvkNRsIfwLFI9/KlH95D+nU4gK2+nYM+fmr8+NU48KztPwIMAABY7HiRIZTSAAAAAElFTkSuQmCC;" vertex="1" parent="1">
          <mxGeometry x="887.58" y="1373.41" width="94.84" height="66.69" as="geometry" />
        </mxCell>
        <mxCell id="UnUnKvQV5A7Vc4DDt37c-119" value="" style="shape=image;verticalLabelPosition=bottom;labelBackgroundColor=#ffffff;verticalAlign=top;aspect=fixed;imageAspect=0;image=data:image/png,iVBORw0KGgoAAAANSUhEUgAAAEUAAAAmCAIAAAAdj8GKAAAAGXRFWHRTb2Z0d2FyZQBBZG9iZSBJbWFnZVJlYWR5ccllPAAAAyZpVFh0WE1MOmNvbS5hZG9iZS54bXAAAAAAADw/eHBhY2tldCBiZWdpbj0i77u/IiBpZD0iVzVNME1wQ2VoaUh6cmVTek5UY3prYzlkIj8+IDx4OnhtcG1ldGEgeG1sbnM6eD0iYWRvYmU6bnM6bWV0YS8iIHg6eG1wdGs9IkFkb2JlIFhNUCBDb3JlIDUuNi1jMTQ1IDc5LjE2MzQ5OSwgMjAxOC8wOC8xMy0xNjo0MDoyMiAgICAgICAgIj4gPHJkZjpSREYgeG1sbnM6cmRmPSJodHRwOi8vd3d3LnczLm9yZy8xOTk5LzAyLzIyLXJkZi1zeW50YXgtbnMjIj4gPHJkZjpEZXNjcmlwdGlvbiByZGY6YWJvdXQ9IiIgeG1sbnM6eG1wPSJodHRwOi8vbnMuYWRvYmUuY29tL3hhcC8xLjAvIiB4bWxuczp4bXBNTT0iaHR0cDovL25zLmFkb2JlLmNvbS94YXAvMS4wL21tLyIgeG1sbnM6c3RSZWY9Imh0dHA6Ly9ucy5hZG9iZS5jb20veGFwLzEuMC9zVHlwZS9SZXNvdXJjZVJlZiMiIHhtcDpDcmVhdG9yVG9vbD0iQWRvYmUgUGhvdG9zaG9wIENDIDIwMTkgKFdpbmRvd3MpIiB4bXBNTTpJbnN0YW5jZUlEPSJ4bXAuaWlkOjhGMjlEQjhGNTAyMzExRUNCQTk2QUZGOEQ5MDUyRjIwIiB4bXBNTTpEb2N1bWVudElEPSJ4bXAuZGlkOjhGMjlEQjkwNTAyMzExRUNCQTk2QUZGOEQ5MDUyRjIwIj4gPHhtcE1NOkRlcml2ZWRGcm9tIHN0UmVmOmluc3RhbmNlSUQ9InhtcC5paWQ6OEYyOURCOEQ1MDIzMTFFQ0JBOTZBRkY4RDkwNTJGMjAiIHN0UmVmOmRvY3VtZW50SUQ9InhtcC5kaWQ6OEYyOURCOEU1MDIzMTFFQ0JBOTZBRkY4RDkwNTJGMjAiLz4gPC9yZGY6RGVzY3JpcHRpb24+IDwvcmRmOlJERj4gPC94OnhtcG1ldGE+IDw/eHBhY2tldCBlbmQ9InIiPz6eqFGuAAANAklEQVR42rxZaXMbxxHd+8Z9EAAPkSIjylYcW/5g56i4SnL+alyV35E4H5zoSLki2bLu6CAp4j52sbuzk9czCwiiLlJxPARBYLk706+P190zKudcedPIxJAfcA/L6CcfPKNv4itjLE0TjDRNGb3LTwx/mRi4RREzZGJaVQ5N08UwDEO8YZimaZi6oZs09MXQ5Mg/0ZP4hHcxB40TYhuvI5EIF3h4KuUSf1IxsjSNBYiU3uM0FiOJE3oJOIQtZRkBo0mAHhPRj4r1uRAMOFRdg/j6Ag0BMizbskzLou+WZQMgXcxvkAg5pyc4V6V2lu9vxSMh5WaBolOW5qInczHiKAzxCqNkHkVxlMRxCiRpkuFesgY9nBsEqlEJyoqmIImqije6srCXAYw6SWwJOxm24zgufj3Xs1zXFZ8lZq5YeBBWhYTSZO+3D0whwcSkcQgcRzRC8YrmUQhM8TxmBCUm26XkVxlnKonMyR0UVboCX1lPXfh2JiCqdGt+HfDVLGEKm3PoJE4wIyafh9CdGTqR63mOa7s0SNEWxpshvdU+CBDhOCkMAltMJmOMKJoCEq4BA8+4lBYhgBckzIRJ1FfjMVNe+a4pr6hTyfEs1oWl8vuxQpSxeTqfqTMgcmeOFwQFoWhFBo8i398dP9LT8FdEPJM+Fs2mAJWxBP82dIIApQAPF2tzMcgHXlKLemKdJao34lmFzJXcFTVVE4EPMqDV1AwWi+JQcAZxiKVpGdchbO6y78Kz5C54GuDAJkk8VzkzML1hMppJEh1BEoTHJS45haQxTTDAAsYJi5xcVckxQPCcA3WJRXCZRpwGh5nHc90wKcSYzRButPyr/Pxmf5MqE3onW8GdLG5mmpoQC1NowDqayggVZ1BopgpFLAhQhBP+k6042ysIpMvTG1hAUDHRl6FrurFEognDSCuRQ+tEE3gBIjBjzTeK/VY8L/VJ0+mmYqaqKpUhqIJImFg5E1QuspPIOiIXJZLks6XyTrBQ7lFCbJmFoAVQcmqkdEHTDEHNCE2yjCbAAJKwjCFQLuZR3s9vS33iOcximYaSge9JOK7rMME8jmeCsUF7FGAxZSNpCQpnsiwtw1+fkZ90AeJETulgFkYyRdGimm45+EEqsoiyPTxpvkzAYlBMKfxU9lmmXjwOdTBmIldC/SBqsCdgTCn3hAhO5B0YSZYRAkz+oCYCYDX1QI98BY/Qq1StJkKA6IecV80DCbadJ8kyNCgnc+7AzS2LpAIuiint/XjUxSBzY15uGtC9oiDvDAaD8WgUTidMhD+Eg/k105alCCdUJOEy3iHlMuHgb6ZKqsjdTZQsOeHmyLkMLBCJykTRhBlDEOt87oQhDFXiZdQMuCE3EQWb9n48q6SuJmoaJ6PhcDKZwLUgOjKbYAl602lu6IkAEY0Ly+h5DKuStUXGXE6YLVUu/qcI+2Q5SeYEScAonBCjwliaAk8hqkNuj2azyPNdJ9VcbVEJniKfaotaL8o42Lrf7U7DGSwW+D4iMs0SWdBRrUmFFGRTRbwSAZlGXmVKflK0RUkjy4AFo1CKo4yA+KHUgAiU9WEmAhU8Jr3UEMYQnkJVy3Q6dV0/8AJN105bj76Eizwj0pXre8SW0JIkN55CXM/zhdwaRZnIccsCWMarIoymEhepLxlgJQWLJCbtReUI8X3GJTHKN1FC0XVozBacRvRkmTSnpp4ZD0UFSaX5vg/3hZSZ5OMsgVsVCkVcxPSSdTRyeyFqxpe+xYWOlTzBqoqwlgSAu3RxMy2RqcIlEbQqk50IShNRvKM8QSrX9DxgqOy2LbpvpSY4Q/7B8zYqwbmDdfFZI+Zh2hBlRgoyNUX6m0ynqPAgBD5juf5wcHh4MBlPZrOZ8CKyhOO6hSAAahgZsUcJzbZNRGCazpDCuAZi9j24kit/sSYVARSxuua4oAHHsZkogmzLIRMpZ8cj5LN9PzDoSeQeqpZQcYfz6Kc7j//6t79cv3bj5o3vURNBgt/9/reff/75xx9f+ue1a9/8+ZtZhHzCikFJNzVUybZrFQtFeBeiDgHZaNQuf3LJgCaePP3+2cG9426MMl2BwArUBPHLtcrmeufLL7/47LPffHzpko/A9QNZiaKjQHKCm39IfQAcukKeyqi5SQ6fHzx9+uzR44f37t67c+fuixddEkNXRCdJqMlFUPFRWRSjlylXyoWCj96CbIBsLPibY6IwmoD3x9PueDJG36GISRQdkwFPsVyG//UHw1u3f8Bsw9Hwwt6FnZ0dL/Atx6XM9ibLnAoPIlqmZTRr6Htu3b7192+/vXnjXw8fPhxMpqRUxqgJsymXQ3ewVTij/gLXXVfptDvtVgvyd3vdg4NDkdKZksbRZNzr9YfD8cPjYzAwo/5M6psVi8W1VrPX7R88P/zp7v2bN27u7W5fuXIFDV17YwPcJllGUfmZ8ZBxNUOx0SEr48PRk8dPhv0+gmGt2USFEj14HMcTkcsZCp7xbNLr99BHzsKpSOJWsVgpFgt+IRDw+GA4MjnT08xKYrBft9cP54lhGUW7CKILZ2Ecknpw83A4wvO1eq3TaZUrpfZaA0Z9/vx5qVptqKhcLWQF9S0meo998CTpA/4GgXp9NKWeY29ubRi2ddwfREJS3Aaz9PuDo6NjsPo8nAVeATmiVq1VqlXfd2W7PhqNbEWxGbOQZ5Rk0B1kZHwNXRpy1VA1pmwsG2EsVKtX67Vaq9WoVCqlYsF17MFoAMrTqNRGirM+0N8ka5uqAXZuddYn03EMCFTb8EajPp1F4YsXujDR0dNnFlO8zLBTc399t1gv1TqNra0t5KThYIRqHEmKyj1FmWJOkOR0Rm2hplgVs1gqBk5h6A3jp09JO/O573nNZn1trVkulwPPq9eba2vtQrFiuS65zDsMoJxiwO9AL+1WB9qjRJ+lQaGIHj/wg/v3obkx2nG8Bt3uoFB3DKfm1Rut5tpWs1otR1Q4I8oNOB91hzFVsdmyBDG0cqm03unAsL3eADEx6PeBxzasclBeX98EE3quXylXq/U6LAnLqG8ng9PiwUDV3jBbcOtSpQIO25hOz23v/Lhz5/r1G7f+ffvR/QdITci2cCruKLbmFf1itVqjFJwxlMVFz9toNadROIXLRgkVSnILzdA7rfX9CxfgVce9PuLq0YMnz58d6Bz9gre9tbO1c853A8o+LkTw3g3mDHgowBULM6ZpGS6U1liz0ZxOox9u/wihmbgjNZQZi+ql5s7W9tp6A+kR2QYSVCplhDDiG4E+GI1AxGg9wLnonqNZOJqM0M+v7V/obG6VytWCd5PN2eb6xvmd3fPnd5utNRgUVY7juLr5fmlPi0dW6Rrt+Fm+7yFDg9R+unsPNS+SLKUf19YcJzWzoF366IuPoFBYYDweg8pbrTZfoxr6xfHx0eERrDIeTzJFnQ/i6XR8hCzW65Uq1XPb2+d393Su9w57e/t7F399Ed9t1zs4eK4SrZmvdwcfjie/Gy2vZaHCikcRZL1///616zeyNN3dPf/Jp5+22m040va57Qv7++Alz/eBNmWpuugSXhwdPfrP4++++0f3+Bg83u12nwRPGtV6ISjVao1OZwNNzx/+yOr1Oii0s74OLUXRLCMuMVAiyEL758Qjd2FBqnPRZoktxlmz3tjb3f3qq6+2d85j+WqlurmxWa1Wg2LxxOPoO8BT8J/j4xeFYunhgweYxbZA44rruOVyBV7gWFZnvY0CCkvJjWS5W+LYznuD50PwiGwTgZ6q5fL+xf2rV66WiqXNzY3Lly+f39tlaYZ7XNvWxZ0nBhBumTvI8bI7RFK6fv16GE0PD73xdALR4beo2Wu1OjqCOGVUN3EWBAGaSE3TTuVBZ8KTb8cgQ4t9qU6rffXqVeiyVqm0O51CUFzZxGOohl7bOFQQV+12az6PUX036vVquaTqar1eQzOQsES2soh+Js4oMPJuxbZPGxHKGQcWgArTJB4OBgiSP339tSzwUPCDx6n8kScqKChWNkNkZ5wbWWxGIQ5L5dLG1gbMu76xERTEXi7aR0Ku0vZ/TExjmzbsY77J2j8bHlO0VVh1PJkMh0OsBxXCN0yxP/b67rQEs/R9AIY74c69vV9RYDhOoVAolUriJCYTpaaKLIWvYrPKW5Sq/x88eZMHXjDNUZKCaiVfG6IjEJuPGhlEU3OzKAualWc1C5uBrLbE0HRN1DixPAejJocr4BtcRK3tee4pI2d5hME/AFIitlpGkzEKAjqd8V3ahTHyEzVhGY12QJZdMacLy50e2nPLXtlYlId/6Ca4OHlhdGqlo4qD6n4JPPIAj44eohAG0cV5ycK3VnbyFHVBBOrqRjzni+Ba2WSUeyO0pcC42AYjtz4TmP8Jz2Kbhkk55D6TsrLRpr1yXqK8dtCw4oRLG8pCBAHz2kHiL4FnRXh1cXC0PJniSnaqMkpwzEuwb9u4OeX4rwADAInkTlKOK8LFAAAAAElFTkSuQmCC;" vertex="1" parent="1">
          <mxGeometry x="1003" y="1384.89" width="89" height="49.01" as="geometry" />
        </mxCell>
        <mxCell id="UnUnKvQV5A7Vc4DDt37c-120" value="" style="shape=image;verticalLabelPosition=bottom;labelBackgroundColor=#ffffff;verticalAlign=top;aspect=fixed;imageAspect=0;image=data:image/png,iVBORw0KGgoAAAANSUhEUgAAADYAAAA9CAIAAABp4A1JAAAAGXRFWHRTb2Z0d2FyZQBBZG9iZSBJbWFnZVJlYWR5ccllPAAAAyZpVFh0WE1MOmNvbS5hZG9iZS54bXAAAAAAADw/eHBhY2tldCBiZWdpbj0i77u/IiBpZD0iVzVNME1wQ2VoaUh6cmVTek5UY3prYzlkIj8+IDx4OnhtcG1ldGEgeG1sbnM6eD0iYWRvYmU6bnM6bWV0YS8iIHg6eG1wdGs9IkFkb2JlIFhNUCBDb3JlIDUuNi1jMTQ1IDc5LjE2MzQ5OSwgMjAxOC8wOC8xMy0xNjo0MDoyMiAgICAgICAgIj4gPHJkZjpSREYgeG1sbnM6cmRmPSJodHRwOi8vd3d3LnczLm9yZy8xOTk5LzAyLzIyLXJkZi1zeW50YXgtbnMjIj4gPHJkZjpEZXNjcmlwdGlvbiByZGY6YWJvdXQ9IiIgeG1sbnM6eG1wPSJodHRwOi8vbnMuYWRvYmUuY29tL3hhcC8xLjAvIiB4bWxuczp4bXBNTT0iaHR0cDovL25zLmFkb2JlLmNvbS94YXAvMS4wL21tLyIgeG1sbnM6c3RSZWY9Imh0dHA6Ly9ucy5hZG9iZS5jb20veGFwLzEuMC9zVHlwZS9SZXNvdXJjZVJlZiMiIHhtcDpDcmVhdG9yVG9vbD0iQWRvYmUgUGhvdG9zaG9wIENDIDIwMTkgKFdpbmRvd3MpIiB4bXBNTTpJbnN0YW5jZUlEPSJ4bXAuaWlkOjhGMUIxMjM1NTAyMzExRUNCQTk2QUZGOEQ5MDUyRjIwIiB4bXBNTTpEb2N1bWVudElEPSJ4bXAuZGlkOjhGMUIxMjM2NTAyMzExRUNCQTk2QUZGOEQ5MDUyRjIwIj4gPHhtcE1NOkRlcml2ZWRGcm9tIHN0UmVmOmluc3RhbmNlSUQ9InhtcC5paWQ6OEYxQjEyMzM1MDIzMTFFQ0JBOTZBRkY4RDkwNTJGMjAiIHN0UmVmOmRvY3VtZW50SUQ9InhtcC5kaWQ6OEYxQjEyMzQ1MDIzMTFFQ0JBOTZBRkY4RDkwNTJGMjAiLz4gPC9yZGY6RGVzY3JpcHRpb24+IDwvcmRmOlJERj4gPC94OnhtcG1ldGE+IDw/eHBhY2tldCBlbmQ9InIiPz5HsbZQAAAMNUlEQVR42tRaa3PbxhXFYhcEAfEhSiItWbEUR/FMJnbr8Uy/+b/7Q6Yfm/aDk/iVziiy3hZJUSQIEM+euxeAIFqxKcVq0x0PDeG1Z+/jnHuXFFmWGX/uYRp/+qEyIxKGMPJ/GvF1Zg1nse/P6vWa7Vj4czKZHB4eOk6921tTSkpJDwp6XPIb0ixLEngoE0JYVm6ITA/TNPUcGZ/ADcXFNMlSvlMKUwjcpgiiWNDaJmZSqZFNp/6Hk5Pj0+Ojo6Ner7fUcFzXMWUtTXEx1a8WBq9YlIeXowB07RDXXlWLWtuS+OcHs+Fw9OO//vn69avj4+MnTx5vbPZgRbtWi6MIFsmkpfT6MZlSn8an4YsrF+V1gacKF//uSBNDu8Mwc4snYRhOp95oPDzrfzg8OICf7boNM8M/WQpXZZKO8ZTBuYjJyYvwfZaQE6UUQlT8SyNJU5zA2vTqzM+ly0eY4UM9AcIIE5j1ul13YDgrimb9fn88vgjDGV6r5NW3ZfwgYaUDoNAj0UFavTHRJ8vzGa+uyAm1UNLTHGkSJsDRajf/8vRxr7dycnqM6FxeXjZEMp6MpGqZNaUsIYr1keNkEZcIUlOyRSomzP2r800vz6QL2dWEhQviivWuMSqWg+WlaZQkMUWkNGdR6PvexcUFPsMwwHlAb2I0Ou3mmjJtgmAWMD6Tj+nHE6b6pIZiVa34qTdpY4jMIANlwoDxlGy4Tv1ifD487x8d9ftnH6I46a6uP/7+b80lsIoppbaM/N13Fr6mQJ0PtOJK1dHiExzOd1I2kLcIJDlCUALFceh5Y8+7GE/HWDmC8ujodOz6WAMo00YS2ZZGqs36OX5DRsVJkhvFLL2wMOmQZWgZqWblFODCaDaejJEuQJmmseM4gH5wsG/XXEBrt1sYjUbDtm1FwzQzUXVVNRyZxpE0URTlwUp0vzBEJEqcRCYlrMwlwaAzvj8dDM72ftsbTy+SOLbuKbNOkyExZyGNiJiS1kb4TFG+LQhmxPOchkZa0wPHpkB4KGI3BIhp3oi6yWzEGlKnG8cQ5XgSBMHw/HziXeC42Wo03bTu1pEu+h4kItkDfpbE5iCdLI4jzw/Oz8+BngMASGBswqGUvtcgZ8HiNGOipXIBiGR1EoqMbYCHEVe27eB9a6tr3W43iiE5g9OT04az8v13X9tWHdAxJWxjwV96miROwzA+OTmBbL7f3wfzK0tBOZeW3M3NzXv3eq1WG7drViehCAI4IW61rmR0+ntMroPGZP9mhZDCe8jWzsrKN988BFbEgIesGY191Bp+BDsFsxnYo6mpqNl0saooSvf29nZ/w9jFGhqNpZXVlW53DdCRJCwNJbeQ3hSps1C66HIk0zkj9GIoIvHSznLHffxkBVOtrf708uVgMPzll9dTL0CZcXbWn04nSJp799a3trZc18XD+/uwIMZ7HQCQSbkEM2I4DuIVE8VxzIRFBGCphSDqhZkaFuKEDFla1BRwpWtZdmNp0nAb0rS8mT8cDOMYBjHq9bqWSiCTmBgCB0uvrKyAieBZpPnq6mqns7zS6XRWOmAnKWUhJUKXIEoWcpoHmQ5tdrdZFVk2Ni34si7JQ0LXM3QTUOIfYs8wZhi1mr2ih85lBaywko1Pp46T4CZYrtFw8cFhSkmjKHgQ5QUMqIN1GWlJFoKGi5gT8xBjbUCibUO/hUMk0wqgKxphTLwJ5OXnn156XtTrboMMXbfOL8T0MA+YHGwi86HwJ+mTsrhAydXcYrbIC2EYseQpRRl6pbZJ55JGsKonhDLTskI36/I401KM7G4226ur91rN9Kuvtlc7y622WxRyOsEulUJLU2qUrgOOPFH4XULoiiclpTAvqbuo6Yq6S4iyWDek0nGXFBqDa4oJ3Cx0PUuiDLVE4Eco+SRZXHIsIP+RxXic6xipLrUgIY6MterIuQohzyRzruoWuQYxIeNtQlbEKssPs6LyK4spTRIiDrMgQGcT4gaSxVmIjCTJkybXfdpOhq4VyWBFHuTRXVorSy5Zrlqfq7n2QlfKWbUwuqw5MiOOsHqDVYEWps+HYQIunHohEHjTKcCBdUEmjmMjFLn0jmNoJPiPCr9m0wGjU6BCSGTJG/mnyObbO8XmKjBUUiXBe1Nv4p+dne3u/jadTjEV0GCi3BpZatUsVAxYMSrIg/f7CPTZDE4wwMyQCnYiSXychGhtohDpDJbZ2XkIOQGnl7Wa0LGd80WqtU9IpYwrpFOUG5ViPcF8Ub9//ubNv3/44e/9/gDXI6hsRMbQn5HruM1Wq9Np1x1ndD4C6MHZAKXuh7MPldaH6hd0DmEUgAu3trchPDAh1AVRVzpqrqa9YsVUa27paZ3rFCu+H6DZg1q9fvMWmnF+PoLm6iChpMOswSwA5zVH45k/g0k8f5omMUrG4XAIIS4aA8m91SyaodGBK0Ccmhqdra0NVJNlmguRNyxIRFQU0qzEoo48ai+LrsJkt1MVMzzf298/2D8IAh/GR6KTNpmkyYhGeETJGugZpEKSQGTE9bZpae3S0UZ/YtRsK45tHbjhEEI5HMIEIHml1JyYcQJVu1mV6u7QMMVcn43ljkaj44OjycTb3t4GOiVQ98Eqkjkc3oOoICdct4GZMKsQ6Wq37QfrGxv3ecGwN/BRvUMUkcGKOL/c6eDiaDSGIEFjYLM8aYpuuOJUDRFvMDX0LKeXHKjbcNbXu3999vir7U3EvqktZ+RdvGCZQUhj+lAvxpsN8fz6/S6CTBfZZD2iMFqcrrGE4QcBKBFlQ6+7hgrIqikSrdxtuonOSCDm+ihx650xbX4aKF3evXv34sUL0Mrz588fPXr0YOsBiVxFZ3ngBi1u6pPbJrfdMFmwv0EJA2Tio90Z3nL43J7Ol4ZYTpYVAxCR44DIKVJtRjPuLbjkvCHKG0CsWiLf87qKEukOiDDkx4/wZohp3mY785ZWnHMcpy2Ik1pSzThUrqRpiam8jVPtDmOxajYu4nXyEj4QMpsQKQx4SCezGAzu46i4K4iwjTf1vAnt6bCdBoPB6ekpGitIzvv37yeTie6Lqe9st9sNParmvCmHqJuaEMa7GF2g3Tw4OAC9a6n00fKNx2Mcv337FoBIKqnUte/fv7++vg7rMugy8b88xJIC2VOwH/C9efMGBmOTADeaVMTfr7/+yjskRP6uizUAEJp5vQVi3XI7fpHMwNzclRU7HrSjcHh4yL5mouHb4HSOPxwjOmHRbrfLjH37bwz+OF3DiezKmDajQkYDOdYbO/QnUn2uXPjyEAWXyFfbC6UFupqbOA+g5W4xBiACtyjimNlbCPGFSad08RxE3tFim1H5GAQ4gDnLIiPWJ8mQlZhmjb6TWOQI0xt5MatZpAd/A1CVNSZLxpFfqlA3G/JOMpodSs6LEz4D87Dl2NHsXw6JElAuJ3/wC7aFNu8KvtBbcrTFRgTueYNBH10pyAVEE+uBOhchigAAueM2JA1Y059OnboNdeSl3lW6VI4phXlrxqk7HAkwJ9DAxLZdYzHU+yQW7qlWFf8N0qGCxciAoNfr7ezsLC8vw93QFdBkv98H9J2db0GE4GqEKbzM6rJEdbh1t7FYjUi0V+j3Njc3uQXDGSjN7u7ucDiAUZ88efLgwQNIM7N9i1rYjl2zOV6rkfrlIZbbppgDxgPKjY11kCP8+OrVK9gVBQS05NmzZ2zda2vsmzLizUiHGeRKaIrK/4V8632btKxoqkDvtjEo2aRazEpTlvvSVQTVb1eubA8VlexNsS4EsaxM9QZNXJ4syzNUNLjEjUG1oim/HC3fwCeZv77YbyNY7ko0vEvLJ/XuwszXg0WF91KQ5mXm3i7+bsOLZZcEAZTSZlMBDegQpIPCkUUPx6jQuFjkhvWP974LlencpmDo78xSkBwOwIWgm729vZcvX6K8HQ6HSOSnT59ubW1tbGyAEUGQoO4SZRmLZbe6+C9MPp/SqK1Io4VZzgfPHh8f//Lzz//48cd3794BKy75nhf4AUrdhw8fQgptCKEWm7mO8bLV+ujHBItCFNcUY1axl5wVdaHVabW/+fpraYjvvn008TyoTk0q1643lqif2uisLruNGgIpNcq96lv/TufzS8nXnRr8FZshhTKtJdftrXUl7dxl3LOKNKsZOTEtL7WWanWTvmVgfEIfiLuKxf/t+D/4QdZ/BBgAQTaKTeUTpVUAAAAASUVORK5CYII=;" vertex="1" parent="1">
          <mxGeometry x="1257.5" y="1366.26" width="75" height="84.72" as="geometry" />
        </mxCell>
      </root>
    </mxGraphModel>
  </diagram>
</mxfile>
